<svg xmlns="http://www.w3.org/2000/svg" xmlns:xlink="http://www.w3.org/1999/xlink" width="500" zoomAndPan="magnify" viewBox="0 0 375 374.999991" height="500" preserveAspectRatio="xMidYMid meet" version="1.0"><path fill="#000000" d="M 187.472656 0 C 83.914062 0 -0.0273438 83.945312 -0.0273438 187.5 C -0.0273438 291.054688 83.914062 375 187.472656 375 C 291.019531 375 374.972656 291.054688 374.972656 187.5 C 374.972656 83.945312 291.019531 0 187.472656 0 Z M 69.75 304.6875 C 69.75 272.324219 82.867188 243.027344 104.070312 221.820312 C 125.277344 200.617188 154.574219 187.5 186.9375 187.5 C 154.574219 187.5 128.34375 161.269531 128.34375 128.90625 C 128.34375 96.542969 154.574219 70.3125 186.9375 70.3125 C 219.300781 70.3125 245.53125 96.542969 245.53125 128.90625 C 245.53125 161.269531 219.300781 187.5 186.9375 187.5 C 219.300781 187.5 248.597656 200.617188 269.804688 221.820312 C 291.007812 243.027344 304.125 272.324219 304.125 304.6875 Z M 69.75 304.6875 " fill-opacity="1" fill-rule="nonzero"/></svg>