<svg xmlns="http://www.w3.org/2000/svg" xmlns:xlink="http://www.w3.org/1999/xlink" width="500" zoomAndPan="magnify" viewBox="0 0 375 374.999991" height="500" preserveAspectRatio="xMidYMid meet" version="1.0"><path fill="#ffffff" d="M 46.875 0 L 128.90625 0 C 130.441406 0 131.972656 0.0742188 133.5 0.226562 C 135.027344 0.375 136.546875 0.601562 138.050781 0.902344 C 139.558594 1.199219 141.042969 1.574219 142.511719 2.019531 C 143.984375 2.464844 145.425781 2.980469 146.84375 3.566406 C 148.261719 4.15625 149.648438 4.8125 151.003906 5.535156 C 152.355469 6.257812 153.671875 7.046875 154.949219 7.898438 C 156.226562 8.753906 157.457031 9.667969 158.644531 10.640625 C 159.832031 11.613281 160.964844 12.644531 162.050781 13.730469 C 163.136719 14.816406 164.167969 15.949219 165.140625 17.136719 C 166.113281 18.324219 167.027344 19.554688 167.882812 20.832031 C 168.734375 22.109375 169.523438 23.425781 170.246094 24.777344 C 170.96875 26.132812 171.625 27.519531 172.214844 28.9375 C 172.800781 30.355469 173.316406 31.796875 173.761719 33.269531 C 174.207031 34.738281 174.582031 36.222656 174.878906 37.730469 C 175.179688 39.234375 175.40625 40.753906 175.554688 42.28125 C 175.707031 43.808594 175.78125 45.339844 175.78125 46.875 L 175.78125 128.90625 C 175.78125 130.441406 175.707031 131.972656 175.554688 133.5 C 175.40625 135.027344 175.179688 136.546875 174.878906 138.050781 C 174.582031 139.558594 174.207031 141.042969 173.761719 142.511719 C 173.316406 143.984375 172.800781 145.425781 172.214844 146.84375 C 171.625 148.261719 170.96875 149.648438 170.246094 151.003906 C 169.523438 152.355469 168.734375 153.671875 167.882812 154.949219 C 167.027344 156.226562 166.113281 157.457031 165.140625 158.644531 C 164.167969 159.832031 163.136719 160.964844 162.050781 162.050781 C 160.964844 163.136719 159.832031 164.167969 158.644531 165.140625 C 157.457031 166.113281 156.226562 167.027344 154.949219 167.882812 C 153.671875 168.734375 152.355469 169.523438 151.003906 170.246094 C 149.648438 170.96875 148.261719 171.625 146.84375 172.214844 C 145.425781 172.800781 143.984375 173.316406 142.511719 173.761719 C 141.042969 174.207031 139.558594 174.582031 138.050781 174.878906 C 136.546875 175.179688 135.027344 175.40625 133.5 175.554688 C 131.972656 175.707031 130.441406 175.78125 128.90625 175.78125 L 46.875 175.78125 C 45.339844 175.78125 43.808594 175.707031 42.28125 175.554688 C 40.753906 175.40625 39.234375 175.179688 37.730469 174.878906 C 36.222656 174.582031 34.738281 174.207031 33.269531 173.761719 C 31.796875 173.316406 30.355469 172.800781 28.9375 172.214844 C 27.519531 171.625 26.132812 170.96875 24.777344 170.246094 C 23.425781 169.523438 22.109375 168.734375 20.832031 167.882812 C 19.554688 167.027344 18.324219 166.113281 17.136719 165.140625 C 15.949219 164.167969 14.816406 163.136719 13.730469 162.050781 C 12.644531 160.964844 11.613281 159.832031 10.640625 158.644531 C 9.667969 157.457031 8.753906 156.226562 7.898438 154.949219 C 7.046875 153.671875 6.257812 152.355469 5.535156 151.003906 C 4.8125 149.648438 4.15625 148.261719 3.566406 146.84375 C 2.980469 145.425781 2.464844 143.984375 2.019531 142.511719 C 1.574219 141.042969 1.199219 139.558594 0.902344 138.050781 C 0.601562 136.546875 0.375 135.027344 0.226562 133.5 C 0.0742188 131.972656 0 130.441406 0 128.90625 L 0 46.875 C 0 45.339844 0.0742188 43.808594 0.226562 42.28125 C 0.375 40.753906 0.601562 39.234375 0.902344 37.730469 C 1.199219 36.222656 1.574219 34.738281 2.019531 33.269531 C 2.464844 31.796875 2.980469 30.355469 3.566406 28.9375 C 4.15625 27.519531 4.8125 26.132812 5.535156 24.777344 C 6.257812 23.425781 7.046875 22.109375 7.898438 20.832031 C 8.753906 19.554688 9.667969 18.324219 10.640625 17.136719 C 11.613281 15.949219 12.644531 14.816406 13.730469 13.730469 C 14.816406 12.644531 15.949219 11.613281 17.136719 10.640625 C 18.324219 9.667969 19.554688 8.753906 20.832031 7.898438 C 22.109375 7.046875 23.425781 6.257812 24.777344 5.535156 C 26.132812 4.8125 27.519531 4.15625 28.9375 3.566406 C 30.355469 2.980469 31.796875 2.464844 33.269531 2.019531 C 34.738281 1.574219 36.222656 1.199219 37.730469 0.902344 C 39.234375 0.601562 40.753906 0.375 42.28125 0.226562 C 43.808594 0.0742188 45.339844 0 46.875 0 Z M 46.875 0 " fill-opacity="1" fill-rule="nonzero"/><path fill="#ffffff" d="M 246.09375 0 L 328.125 0 C 329.660156 0 331.191406 0.0742188 332.71875 0.226562 C 334.246094 0.375 335.765625 0.601562 337.269531 0.902344 C 338.777344 1.199219 340.261719 1.574219 341.730469 2.019531 C 343.199219 2.464844 344.644531 2.980469 346.0625 3.566406 C 347.480469 4.15625 348.867188 4.8125 350.222656 5.535156 C 351.574219 6.257812 352.890625 7.046875 354.167969 7.898438 C 355.445312 8.753906 356.675781 9.667969 357.863281 10.640625 C 359.050781 11.613281 360.183594 12.644531 361.269531 13.730469 C 362.355469 14.816406 363.386719 15.949219 364.359375 17.136719 C 365.332031 18.324219 366.246094 19.554688 367.101562 20.832031 C 367.953125 22.109375 368.742188 23.425781 369.464844 24.777344 C 370.1875 26.132812 370.84375 27.519531 371.433594 28.9375 C 372.019531 30.355469 372.535156 31.796875 372.980469 33.269531 C 373.425781 34.738281 373.800781 36.222656 374.097656 37.730469 C 374.398438 39.234375 374.625 40.753906 374.773438 42.28125 C 374.925781 43.808594 375 45.339844 375 46.875 L 375 128.90625 C 375 130.441406 374.925781 131.972656 374.773438 133.5 C 374.625 135.027344 374.398438 136.546875 374.097656 138.050781 C 373.800781 139.558594 373.425781 141.042969 372.980469 142.511719 C 372.535156 143.984375 372.019531 145.425781 371.433594 146.84375 C 370.84375 148.261719 370.1875 149.648438 369.464844 151.003906 C 368.742188 152.355469 367.953125 153.671875 367.101562 154.949219 C 366.246094 156.226562 365.332031 157.457031 364.359375 158.644531 C 363.386719 159.832031 362.355469 160.964844 361.269531 162.050781 C 360.183594 163.136719 359.050781 164.167969 357.863281 165.140625 C 356.675781 166.113281 355.445312 167.027344 354.167969 167.882812 C 352.890625 168.734375 351.574219 169.523438 350.222656 170.246094 C 348.867188 170.96875 347.480469 171.625 346.0625 172.214844 C 344.644531 172.800781 343.199219 173.316406 341.730469 173.761719 C 340.261719 174.207031 338.777344 174.582031 337.269531 174.878906 C 335.765625 175.179688 334.246094 175.40625 332.71875 175.554688 C 331.191406 175.707031 329.660156 175.78125 328.125 175.78125 L 246.09375 175.78125 C 244.558594 175.78125 243.027344 175.707031 241.5 175.554688 C 239.972656 175.40625 238.453125 175.179688 236.949219 174.878906 C 235.441406 174.582031 233.957031 174.207031 232.488281 173.761719 C 231.015625 173.316406 229.574219 172.800781 228.15625 172.214844 C 226.738281 171.625 225.351562 170.96875 223.996094 170.246094 C 222.644531 169.523438 221.328125 168.734375 220.050781 167.882812 C 218.773438 167.027344 217.542969 166.113281 216.355469 165.140625 C 215.167969 164.167969 214.035156 163.136719 212.949219 162.050781 C 211.863281 160.964844 210.832031 159.832031 209.859375 158.644531 C 208.886719 157.457031 207.972656 156.226562 207.117188 154.949219 C 206.265625 153.671875 205.476562 152.355469 204.753906 151.003906 C 204.03125 149.648438 203.375 148.261719 202.785156 146.84375 C 202.199219 145.425781 201.683594 143.984375 201.238281 142.511719 C 200.792969 141.042969 200.417969 139.558594 200.121094 138.050781 C 199.820312 136.546875 199.59375 135.027344 199.445312 133.5 C 199.292969 131.972656 199.21875 130.441406 199.21875 128.90625 L 199.21875 46.875 C 199.21875 45.339844 199.292969 43.808594 199.445312 42.28125 C 199.59375 40.753906 199.820312 39.234375 200.121094 37.730469 C 200.417969 36.222656 200.792969 34.738281 201.238281 33.269531 C 201.683594 31.796875 202.199219 30.355469 202.785156 28.9375 C 203.375 27.519531 204.03125 26.132812 204.753906 24.777344 C 205.476562 23.425781 206.265625 22.109375 207.117188 20.832031 C 207.972656 19.554688 208.886719 18.324219 209.859375 17.136719 C 210.832031 15.949219 211.863281 14.816406 212.949219 13.730469 C 214.035156 12.644531 215.167969 11.613281 216.355469 10.640625 C 217.542969 9.667969 218.773438 8.753906 220.050781 7.898438 C 221.328125 7.046875 222.644531 6.257812 223.996094 5.535156 C 225.351562 4.8125 226.738281 4.15625 228.15625 3.566406 C 229.574219 2.980469 231.015625 2.464844 232.488281 2.019531 C 233.957031 1.574219 235.441406 1.199219 236.949219 0.902344 C 238.453125 0.601562 239.972656 0.375 241.5 0.226562 C 243.027344 0.0742188 244.558594 0 246.09375 0 Z M 246.09375 0 " fill-opacity="1" fill-rule="nonzero"/><path fill="#ffffff" d="M 46.875 199.21875 L 128.90625 199.21875 C 130.441406 199.21875 131.972656 199.292969 133.5 199.445312 C 135.027344 199.59375 136.546875 199.820312 138.050781 200.121094 C 139.558594 200.417969 141.042969 200.792969 142.511719 201.238281 C 143.984375 201.683594 145.425781 202.199219 146.84375 202.785156 C 148.261719 203.375 149.648438 204.03125 151.003906 204.753906 C 152.355469 205.476562 153.671875 206.265625 154.949219 207.117188 C 156.226562 207.972656 157.457031 208.886719 158.644531 209.859375 C 159.832031 210.832031 160.964844 211.863281 162.050781 212.949219 C 163.136719 214.035156 164.167969 215.167969 165.140625 216.355469 C 166.113281 217.542969 167.027344 218.773438 167.882812 220.050781 C 168.734375 221.328125 169.523438 222.644531 170.246094 223.996094 C 170.96875 225.351562 171.625 226.738281 172.214844 228.15625 C 172.800781 229.574219 173.316406 231.015625 173.761719 232.488281 C 174.207031 233.957031 174.582031 235.441406 174.878906 236.949219 C 175.179688 238.453125 175.40625 239.972656 175.554688 241.5 C 175.707031 243.027344 175.78125 244.558594 175.78125 246.09375 L 175.78125 328.125 C 175.78125 329.660156 175.707031 331.191406 175.554688 332.71875 C 175.40625 334.246094 175.179688 335.765625 174.878906 337.269531 C 174.582031 338.777344 174.207031 340.261719 173.761719 341.730469 C 173.316406 343.199219 172.800781 344.644531 172.214844 346.0625 C 171.625 347.480469 170.96875 348.867188 170.246094 350.222656 C 169.523438 351.574219 168.734375 352.890625 167.882812 354.167969 C 167.027344 355.445312 166.113281 356.675781 165.140625 357.863281 C 164.167969 359.050781 163.136719 360.183594 162.050781 361.269531 C 160.964844 362.355469 159.832031 363.386719 158.644531 364.359375 C 157.457031 365.332031 156.226562 366.246094 154.949219 367.101562 C 153.671875 367.953125 152.355469 368.742188 151.003906 369.464844 C 149.648438 370.1875 148.261719 370.84375 146.84375 371.433594 C 145.425781 372.019531 143.984375 372.535156 142.511719 372.980469 C 141.042969 373.425781 139.558594 373.800781 138.050781 374.097656 C 136.546875 374.398438 135.027344 374.625 133.5 374.773438 C 131.972656 374.925781 130.441406 375 128.90625 375 L 46.875 375 C 45.339844 375 43.808594 374.925781 42.28125 374.773438 C 40.753906 374.625 39.234375 374.398438 37.730469 374.097656 C 36.222656 373.800781 34.738281 373.425781 33.269531 372.980469 C 31.796875 372.535156 30.355469 372.019531 28.9375 371.433594 C 27.519531 370.84375 26.132812 370.1875 24.777344 369.464844 C 23.425781 368.742188 22.109375 367.953125 20.832031 367.101562 C 19.554688 366.246094 18.324219 365.332031 17.136719 364.359375 C 15.949219 363.386719 14.816406 362.355469 13.730469 361.269531 C 12.644531 360.183594 11.613281 359.050781 10.640625 357.863281 C 9.667969 356.675781 8.753906 355.445312 7.898438 354.167969 C 7.046875 352.890625 6.257812 351.574219 5.535156 350.222656 C 4.8125 348.867188 4.15625 347.480469 3.566406 346.0625 C 2.980469 344.644531 2.464844 343.199219 2.019531 341.730469 C 1.574219 340.261719 1.199219 338.777344 0.902344 337.269531 C 0.601562 335.765625 0.375 334.246094 0.226562 332.71875 C 0.0742188 331.191406 0 329.660156 0 328.125 L 0 246.09375 C 0 244.558594 0.0742188 243.027344 0.226562 241.5 C 0.375 239.972656 0.601562 238.453125 0.902344 236.949219 C 1.199219 235.441406 1.574219 233.957031 2.019531 232.488281 C 2.464844 231.015625 2.980469 229.574219 3.566406 228.15625 C 4.15625 226.738281 4.8125 225.351562 5.535156 223.996094 C 6.257812 222.644531 7.046875 221.328125 7.898438 220.050781 C 8.753906 218.773438 9.667969 217.542969 10.640625 216.355469 C 11.613281 215.167969 12.644531 214.035156 13.730469 212.949219 C 14.816406 211.863281 15.949219 210.832031 17.136719 209.859375 C 18.324219 208.886719 19.554688 207.972656 20.832031 207.117188 C 22.109375 206.265625 23.425781 205.476562 24.777344 204.753906 C 26.132812 204.03125 27.519531 203.375 28.9375 202.785156 C 30.355469 202.199219 31.796875 201.683594 33.269531 201.238281 C 34.738281 200.792969 36.222656 200.417969 37.730469 200.121094 C 39.234375 199.820312 40.753906 199.59375 42.28125 199.445312 C 43.808594 199.292969 45.339844 199.21875 46.875 199.21875 Z M 46.875 199.21875 " fill-opacity="1" fill-rule="nonzero"/><path fill="#ffffff" d="M 246.09375 199.21875 L 328.125 199.21875 C 329.660156 199.21875 331.191406 199.292969 332.71875 199.445312 C 334.246094 199.59375 335.765625 199.820312 337.269531 200.121094 C 338.777344 200.417969 340.261719 200.792969 341.730469 201.238281 C 343.199219 201.683594 344.644531 202.199219 346.0625 202.785156 C 347.480469 203.375 348.867188 204.03125 350.222656 204.753906 C 351.574219 205.476562 352.890625 206.265625 354.167969 207.117188 C 355.445312 207.972656 356.675781 208.886719 357.863281 209.859375 C 359.050781 210.832031 360.183594 211.863281 361.269531 212.949219 C 362.355469 214.035156 363.386719 215.167969 364.359375 216.355469 C 365.332031 217.542969 366.246094 218.773438 367.101562 220.050781 C 367.953125 221.328125 368.742188 222.644531 369.464844 223.996094 C 370.1875 225.351562 370.84375 226.738281 371.433594 228.15625 C 372.019531 229.574219 372.535156 231.015625 372.980469 232.488281 C 373.425781 233.957031 373.800781 235.441406 374.097656 236.949219 C 374.398438 238.453125 374.625 239.972656 374.773438 241.5 C 374.925781 243.027344 375 244.558594 375 246.09375 L 375 328.125 C 375 329.660156 374.925781 331.191406 374.773438 332.71875 C 374.625 334.246094 374.398438 335.765625 374.097656 337.269531 C 373.800781 338.777344 373.425781 340.261719 372.980469 341.730469 C 372.535156 343.199219 372.019531 344.644531 371.433594 346.0625 C 370.84375 347.480469 370.1875 348.867188 369.464844 350.222656 C 368.742188 351.574219 367.953125 352.890625 367.101562 354.167969 C 366.246094 355.445312 365.332031 356.675781 364.359375 357.863281 C 363.386719 359.050781 362.355469 360.183594 361.269531 361.269531 C 360.183594 362.355469 359.050781 363.386719 357.863281 364.359375 C 356.675781 365.332031 355.445312 366.246094 354.167969 367.101562 C 352.890625 367.953125 351.574219 368.742188 350.222656 369.464844 C 348.867188 370.1875 347.480469 370.84375 346.0625 371.433594 C 344.644531 372.019531 343.199219 372.535156 341.730469 372.980469 C 340.261719 373.425781 338.777344 373.800781 337.269531 374.097656 C 335.765625 374.398438 334.246094 374.625 332.71875 374.773438 C 331.191406 374.925781 329.660156 375 328.125 375 L 246.09375 375 C 244.558594 375 243.027344 374.925781 241.5 374.773438 C 239.972656 374.625 238.453125 374.398438 236.949219 374.097656 C 235.441406 373.800781 233.957031 373.425781 232.488281 372.980469 C 231.015625 372.535156 229.574219 372.019531 228.15625 371.433594 C 226.738281 370.84375 225.351562 370.1875 223.996094 369.464844 C 222.644531 368.742188 221.328125 367.953125 220.050781 367.101562 C 218.773438 366.246094 217.542969 365.332031 216.355469 364.359375 C 215.167969 363.386719 214.035156 362.355469 212.949219 361.269531 C 211.863281 360.183594 210.832031 359.050781 209.859375 357.863281 C 208.886719 356.675781 207.972656 355.445312 207.117188 354.167969 C 206.265625 352.890625 205.476562 351.574219 204.753906 350.222656 C 204.03125 348.867188 203.375 347.480469 202.785156 346.0625 C 202.199219 344.644531 201.683594 343.199219 201.238281 341.730469 C 200.792969 340.261719 200.417969 338.777344 200.121094 337.269531 C 199.820312 335.765625 199.59375 334.246094 199.445312 332.71875 C 199.292969 331.191406 199.21875 329.660156 199.21875 328.125 L 199.21875 246.09375 C 199.21875 244.558594 199.292969 243.027344 199.445312 241.5 C 199.59375 239.972656 199.820312 238.453125 200.121094 236.949219 C 200.417969 235.441406 200.792969 233.957031 201.238281 232.488281 C 201.683594 231.015625 202.199219 229.574219 202.785156 228.15625 C 203.375 226.738281 204.03125 225.351562 204.753906 223.996094 C 205.476562 222.644531 206.265625 221.328125 207.117188 220.050781 C 207.972656 218.773438 208.886719 217.542969 209.859375 216.355469 C 210.832031 215.167969 211.863281 214.035156 212.949219 212.949219 C 214.035156 211.863281 215.167969 210.832031 216.355469 209.859375 C 217.542969 208.886719 218.773438 207.972656 220.050781 207.117188 C 221.328125 206.265625 222.644531 205.476562 223.996094 204.753906 C 225.351562 204.03125 226.738281 203.375 228.15625 202.785156 C 229.574219 202.199219 231.015625 201.683594 232.488281 201.238281 C 233.957031 200.792969 235.441406 200.417969 236.949219 200.121094 C 238.453125 199.820312 239.972656 199.59375 241.5 199.445312 C 243.027344 199.292969 244.558594 199.21875 246.09375 199.21875 Z M 246.09375 199.21875 " fill-opacity="1" fill-rule="nonzero"/></svg>