<svg xmlns="http://www.w3.org/2000/svg" xmlns:xlink="http://www.w3.org/1999/xlink" width="500" zoomAndPan="magnify" viewBox="0 0 375 374.999991" height="500" preserveAspectRatio="xMidYMid meet" version="1.0"><defs><clipPath id="920a2efbf6"><path d="M 0 85.226562 L 375 85.226562 L 375 289.976562 L 0 289.976562 Z M 0 85.226562 " clip-rule="nonzero"/></clipPath></defs><g clip-path="url(#920a2efbf6)"><path fill="#222222" d="M 198.578125 153.40625 C 184.515625 113.691406 146.761719 85.226562 102.273438 85.226562 C 45.769531 85.226562 0.00390625 130.992188 0.00390625 187.496094 C 0.00390625 244 45.769531 289.765625 102.273438 289.765625 C 146.761719 289.765625 184.515625 261.300781 198.578125 221.585938 L 272.722656 221.585938 L 272.722656 289.765625 L 340.902344 289.765625 L 340.902344 221.585938 L 374.992188 221.585938 L 374.992188 153.40625 Z M 102.273438 221.585938 C 83.441406 221.585938 68.183594 206.332031 68.183594 187.496094 C 68.183594 168.664062 83.441406 153.40625 102.273438 153.40625 C 121.109375 153.40625 136.363281 168.664062 136.363281 187.496094 C 136.363281 206.332031 121.109375 221.585938 102.273438 221.585938 Z M 102.273438 221.585938 " fill-opacity="1" fill-rule="nonzero"/></g></svg>