<svg xmlns="http://www.w3.org/2000/svg" xmlns:xlink="http://www.w3.org/1999/xlink" width="500" zoomAndPan="magnify" viewBox="0 0 375 374.999991" height="500" preserveAspectRatio="xMidYMid meet" version="1.0"><path stroke-linecap="round" transform="matrix(14.423077, 0, 0, 14.423077, 0.0000045, 0)" fill="none" stroke-linejoin="round" d="M 18.000125 18.000125 L 25.000083 18.000125 L 25.000083 7.999875 L 18.000125 7.999875 " stroke="#000000" stroke-width="2" stroke-opacity="1" stroke-miterlimit="10"/><path stroke-linecap="butt" transform="matrix(14.423077, 0, 0, 14.423077, 0.0000045, 0)" fill="none" stroke-linejoin="round" d="M 15.000104 7.999875 L 0.999916 7.999875 L 0.999916 18.000125 L 15.000104 18.000125 " stroke="#000000" stroke-width="2" stroke-opacity="1" stroke-miterlimit="10"/><path stroke-linecap="round" transform="matrix(14.423077, 0, 0, 14.423077, 0.0000045, 0)" fill="none" stroke-linejoin="round" d="M 13.499958 24.500125 C 18.520937 24.500125 18.500083 21.500104 18.500083 21.500104 L 18.500083 4.499896 C 18.500083 4.499896 18.435083 1.499875 13.499958 1.499875 " stroke="#000000" stroke-width="3" stroke-opacity="1" stroke-miterlimit="10"/><path stroke-linecap="round" transform="matrix(14.423077, 0, 0, 14.423077, 0.0000045, 0)" fill="none" stroke-linejoin="round" d="M 23.499937 24.500125 C 18.478958 24.500125 18.500083 21.500104 18.500083 21.500104 L 18.500083 4.499896 C 18.500083 4.499896 18.565083 1.499875 23.499937 1.499875 " stroke="#000000" stroke-width="3" stroke-opacity="1" stroke-miterlimit="10"/><path fill="#000000" d="M 57.691406 158.652344 L 187.5 158.652344 L 187.5 216.347656 L 57.691406 216.347656 Z M 57.691406 158.652344 " fill-opacity="1" fill-rule="nonzero"/></svg>