<svg xmlns="http://www.w3.org/2000/svg" xmlns:xlink="http://www.w3.org/1999/xlink" width="500" zoomAndPan="magnify" viewBox="0 0 375 374.999991" height="500" preserveAspectRatio="xMidYMid meet" version="1.0"><defs><clipPath id="7cdcf6f965"><path d="M 0 22.03125 L 375 22.03125 L 375 352.78125 L 0 352.78125 Z M 0 22.03125 " clip-rule="nonzero"/></clipPath></defs><path fill="#ffffff" d="M 236.25 224.648438 C 236.25 225.292969 236.3125 225.933594 236.4375 226.570312 C 236.566406 227.203125 236.75 227.816406 237 228.414062 C 237.246094 229.011719 237.550781 229.578125 237.910156 230.117188 C 238.269531 230.65625 238.675781 231.152344 239.132812 231.609375 C 239.589844 232.066406 240.085938 232.472656 240.625 232.832031 C 241.164062 233.191406 241.730469 233.496094 242.328125 233.742188 C 242.925781 233.988281 243.539062 234.175781 244.171875 234.304688 C 244.808594 234.429688 245.449219 234.492188 246.09375 234.492188 C 246.738281 234.492188 247.378906 234.429688 248.015625 234.304688 C 248.648438 234.175781 249.261719 233.988281 249.859375 233.742188 C 250.457031 233.496094 251.023438 233.191406 251.5625 232.832031 C 252.101562 232.472656 252.597656 232.066406 253.054688 231.609375 C 253.511719 231.152344 253.917969 230.65625 254.277344 230.117188 C 254.636719 229.578125 254.941406 229.011719 255.1875 228.414062 C 255.433594 227.816406 255.621094 227.203125 255.75 226.570312 C 255.875 225.933594 255.9375 225.292969 255.9375 224.648438 C 255.9375 224.003906 255.875 223.363281 255.75 222.726562 C 255.621094 222.09375 255.433594 221.476562 255.1875 220.882812 C 254.941406 220.285156 254.636719 219.71875 254.277344 219.179688 C 253.917969 218.640625 253.511719 218.144531 253.054688 217.6875 C 252.597656 217.230469 252.101562 216.824219 251.5625 216.464844 C 251.023438 216.105469 250.457031 215.800781 249.859375 215.554688 C 249.261719 215.304688 248.648438 215.121094 248.015625 214.992188 C 247.378906 214.867188 246.738281 214.804688 246.09375 214.804688 C 245.449219 214.804688 244.808594 214.867188 244.171875 214.992188 C 243.539062 215.121094 242.925781 215.304688 242.328125 215.554688 C 241.730469 215.800781 241.164062 216.105469 240.625 216.464844 C 240.085938 216.824219 239.589844 217.230469 239.132812 217.6875 C 238.675781 218.144531 238.269531 218.640625 237.910156 219.179688 C 237.550781 219.71875 237.246094 220.285156 237 220.882812 C 236.75 221.480469 236.566406 222.09375 236.4375 222.726562 C 236.3125 223.363281 236.25 224.003906 236.25 224.648438 Z M 247.96875 224.648438 C 247.96875 224.898438 247.921875 225.136719 247.824219 225.367188 C 247.730469 225.59375 247.59375 225.796875 247.417969 225.972656 C 247.242188 226.148438 247.039062 226.285156 246.8125 226.378906 C 246.582031 226.476562 246.34375 226.523438 246.09375 226.523438 C 245.863281 226.496094 245.644531 226.425781 245.441406 226.316406 C 245.234375 226.210938 245.054688 226.066406 244.902344 225.894531 C 244.75 225.71875 244.628906 225.523438 244.546875 225.308594 C 244.464844 225.089844 244.425781 224.867188 244.425781 224.632812 C 244.425781 224.402344 244.464844 224.175781 244.546875 223.960938 C 244.628906 223.742188 244.75 223.546875 244.902344 223.375 C 245.054688 223.199219 245.234375 223.058594 245.441406 222.949219 C 245.644531 222.839844 245.863281 222.773438 246.09375 222.742188 C 246.34375 222.746094 246.582031 222.800781 246.8125 222.898438 C 247.042969 222.996094 247.246094 223.132812 247.421875 223.3125 C 247.597656 223.488281 247.730469 223.695312 247.828125 223.925781 C 247.921875 224.15625 247.96875 224.398438 247.96875 224.648438 Z M 247.96875 224.648438 " fill-opacity="1" fill-rule="nonzero"/><path fill="#ffffff" d="M 281.25 234.460938 C 281.898438 234.464844 282.539062 234.402344 283.171875 234.277344 C 283.808594 234.15625 284.425781 233.96875 285.023438 233.722656 C 285.621094 233.476562 286.191406 233.175781 286.730469 232.816406 C 287.269531 232.457031 287.765625 232.050781 288.226562 231.59375 C 288.683594 231.136719 289.09375 230.640625 289.453125 230.101562 C 289.816406 229.566406 290.121094 228.996094 290.367188 228.398438 C 290.617188 227.800781 290.804688 227.1875 290.929688 226.550781 C 291.058594 225.917969 291.121094 225.277344 291.121094 224.628906 C 291.125 223.980469 291.0625 223.339844 290.933594 222.707031 C 290.808594 222.070312 290.621094 221.453125 290.375 220.855469 C 290.128906 220.257812 289.824219 219.691406 289.464844 219.152344 C 289.105469 218.613281 288.699219 218.117188 288.238281 217.660156 C 287.78125 217.199219 287.285156 216.792969 286.746094 216.433594 C 286.207031 216.074219 285.640625 215.769531 285.042969 215.523438 C 284.445312 215.277344 283.828125 215.089844 283.191406 214.964844 C 282.558594 214.835938 281.917969 214.773438 281.269531 214.777344 C 280.621094 214.777344 279.980469 214.839844 279.347656 214.96875 C 278.710938 215.09375 278.097656 215.28125 277.5 215.53125 C 276.902344 215.777344 276.332031 216.082031 275.796875 216.445312 C 275.257812 216.804688 274.761719 217.214844 274.304688 217.671875 C 273.847656 218.132812 273.441406 218.628906 273.082031 219.167969 C 272.722656 219.707031 272.421875 220.277344 272.175781 220.875 C 271.929688 221.472656 271.742188 222.089844 271.621094 222.726562 C 271.496094 223.359375 271.433594 224 271.433594 224.648438 C 271.433594 225.292969 271.5 225.929688 271.625 226.5625 C 271.75 227.195312 271.9375 227.808594 272.183594 228.402344 C 272.429688 229 272.730469 229.566406 273.089844 230.101562 C 273.449219 230.636719 273.855469 231.132812 274.308594 231.589844 C 274.765625 232.042969 275.261719 232.449219 275.796875 232.808594 C 276.332031 233.167969 276.898438 233.46875 277.492188 233.714844 C 278.089844 233.960938 278.703125 234.148438 279.335938 234.273438 C 279.96875 234.398438 280.605469 234.460938 281.25 234.460938 Z M 281.25 222.742188 C 281.503906 222.742188 281.746094 222.785156 281.984375 222.878906 C 282.21875 222.972656 282.425781 223.109375 282.609375 223.285156 C 282.789062 223.460938 282.929688 223.667969 283.03125 223.898438 C 283.128906 224.132812 283.179688 224.375 283.183594 224.628906 C 283.1875 224.882812 283.140625 225.125 283.046875 225.359375 C 282.949219 225.597656 282.8125 225.804688 282.636719 225.984375 C 282.457031 226.164062 282.253906 226.304688 282.019531 226.402344 C 281.785156 226.5 281.542969 226.550781 281.289062 226.550781 C 281.035156 226.554688 280.792969 226.507812 280.558594 226.410156 C 280.324219 226.3125 280.117188 226.175781 279.9375 226 C 279.757812 225.820312 279.617188 225.613281 279.519531 225.378906 C 279.421875 225.144531 279.375 224.902344 279.375 224.648438 C 279.375 224.398438 279.421875 224.15625 279.515625 223.925781 C 279.613281 223.695312 279.746094 223.492188 279.921875 223.3125 C 280.097656 223.132812 280.300781 222.996094 280.53125 222.898438 C 280.761719 222.800781 281 222.746094 281.25 222.742188 Z M 281.25 222.742188 " fill-opacity="1" fill-rule="nonzero"/><path fill="#ffffff" d="M 210.9375 214.804688 C 210.292969 214.804688 209.652344 214.867188 209.015625 214.992188 C 208.382812 215.121094 207.765625 215.304688 207.171875 215.554688 C 206.574219 215.800781 206.007812 216.105469 205.46875 216.464844 C 204.929688 216.824219 204.433594 217.230469 203.976562 217.6875 C 203.519531 218.144531 203.113281 218.640625 202.753906 219.179688 C 202.394531 219.71875 202.089844 220.285156 201.84375 220.882812 C 201.597656 221.476562 201.410156 222.09375 201.28125 222.726562 C 201.15625 223.363281 201.09375 224.003906 201.09375 224.648438 C 201.09375 225.292969 201.15625 225.933594 201.28125 226.570312 C 201.410156 227.203125 201.59375 227.816406 201.84375 228.414062 C 202.089844 229.011719 202.394531 229.578125 202.753906 230.117188 C 203.113281 230.65625 203.519531 231.152344 203.976562 231.609375 C 204.433594 232.066406 204.929688 232.472656 205.46875 232.832031 C 206.007812 233.191406 206.574219 233.496094 207.171875 233.742188 C 207.765625 233.988281 208.382812 234.175781 209.015625 234.304688 C 209.652344 234.429688 210.292969 234.492188 210.9375 234.492188 C 211.582031 234.492188 212.222656 234.429688 212.859375 234.304688 C 213.492188 234.175781 214.105469 233.988281 214.703125 233.742188 C 215.300781 233.496094 215.867188 233.191406 216.40625 232.832031 C 216.945312 232.472656 217.441406 232.066406 217.898438 231.609375 C 218.355469 231.152344 218.761719 230.65625 219.121094 230.117188 C 219.480469 229.578125 219.785156 229.011719 220.03125 228.414062 C 220.277344 227.816406 220.464844 227.203125 220.59375 226.570312 C 220.71875 225.933594 220.78125 225.292969 220.78125 224.648438 C 220.78125 224 220.722656 223.359375 220.597656 222.726562 C 220.472656 222.089844 220.285156 221.476562 220.039062 220.875 C 219.792969 220.277344 219.492188 219.710938 219.132812 219.171875 C 218.773438 218.632812 218.363281 218.136719 217.90625 217.679688 C 217.449219 217.222656 216.953125 216.8125 216.414062 216.453125 C 215.875 216.09375 215.308594 215.792969 214.710938 215.546875 C 214.109375 215.300781 213.496094 215.113281 212.859375 214.988281 C 212.226562 214.863281 211.585938 214.800781 210.9375 214.804688 Z M 210.9375 226.523438 C 210.683594 226.523438 210.441406 226.476562 210.207031 226.378906 C 209.972656 226.28125 209.765625 226.140625 209.585938 225.960938 C 209.410156 225.78125 209.273438 225.574219 209.175781 225.339844 C 209.078125 225.105469 209.03125 224.863281 209.035156 224.609375 C 209.035156 224.355469 209.085938 224.113281 209.183594 223.878906 C 209.28125 223.644531 209.421875 223.441406 209.601562 223.261719 C 209.78125 223.085938 209.988281 222.949219 210.226562 222.851562 C 210.460938 222.757812 210.703125 222.710938 210.957031 222.714844 C 211.210938 222.71875 211.453125 222.769531 211.6875 222.867188 C 211.917969 222.96875 212.125 223.109375 212.300781 223.289062 C 212.476562 223.472656 212.613281 223.679688 212.707031 223.914062 C 212.800781 224.152344 212.847656 224.394531 212.839844 224.648438 C 212.84375 224.898438 212.792969 225.140625 212.695312 225.371094 C 212.597656 225.605469 212.460938 225.808594 212.28125 225.984375 C 212.101562 226.160156 211.898438 226.296875 211.664062 226.390625 C 211.429688 226.484375 211.1875 226.527344 210.9375 226.523438 Z M 210.9375 226.523438 " fill-opacity="1" fill-rule="nonzero"/><path fill="#ffffff" d="M 175.222656 214.804688 C 174.578125 214.804688 173.9375 214.867188 173.304688 214.992188 C 172.671875 215.121094 172.054688 215.304688 171.457031 215.554688 C 170.859375 215.800781 170.292969 216.105469 169.753906 216.464844 C 169.21875 216.824219 168.722656 217.230469 168.265625 217.6875 C 167.808594 218.144531 167.398438 218.640625 167.039062 219.179688 C 166.679688 219.71875 166.378906 220.285156 166.128906 220.882812 C 165.882812 221.476562 165.695312 222.09375 165.570312 222.726562 C 165.445312 223.363281 165.378906 224.003906 165.382812 224.648438 C 165.378906 225.292969 165.445312 225.933594 165.570312 226.570312 C 165.695312 227.203125 165.882812 227.816406 166.128906 228.414062 C 166.378906 229.011719 166.679688 229.578125 167.039062 230.117188 C 167.398438 230.65625 167.808594 231.152344 168.265625 231.609375 C 168.722656 232.066406 169.21875 232.472656 169.753906 232.832031 C 170.292969 233.191406 170.859375 233.496094 171.457031 233.742188 C 172.054688 233.988281 172.671875 234.175781 173.304688 234.304688 C 173.9375 234.429688 174.578125 234.492188 175.226562 234.492188 C 175.871094 234.492188 176.511719 234.429688 177.144531 234.304688 C 177.777344 234.175781 178.394531 233.988281 178.992188 233.742188 C 179.589844 233.496094 180.15625 233.191406 180.695312 232.832031 C 181.230469 232.472656 181.726562 232.066406 182.183594 231.609375 C 182.640625 231.152344 183.050781 230.65625 183.410156 230.117188 C 183.769531 229.578125 184.070312 229.011719 184.320312 228.414062 C 184.566406 227.816406 184.753906 227.203125 184.878906 226.570312 C 185.003906 225.933594 185.066406 225.292969 185.066406 224.648438 C 185.066406 224.003906 185.003906 223.363281 184.878906 222.726562 C 184.753906 222.09375 184.566406 221.476562 184.320312 220.882812 C 184.070312 220.285156 183.769531 219.71875 183.410156 219.179688 C 183.050781 218.640625 182.640625 218.144531 182.183594 217.6875 C 181.726562 217.230469 181.230469 216.824219 180.695312 216.464844 C 180.15625 216.105469 179.589844 215.800781 178.992188 215.554688 C 178.394531 215.304688 177.777344 215.121094 177.144531 214.992188 C 176.511719 214.867188 175.871094 214.804688 175.222656 214.804688 Z M 175.222656 226.523438 C 174.96875 226.527344 174.726562 226.480469 174.488281 226.386719 C 174.253906 226.292969 174.042969 226.15625 173.863281 225.980469 C 173.679688 225.800781 173.539062 225.59375 173.441406 225.363281 C 173.34375 225.128906 173.292969 224.882812 173.292969 224.628906 C 173.289062 224.375 173.335938 224.128906 173.433594 223.894531 C 173.53125 223.660156 173.667969 223.453125 173.847656 223.273438 C 174.027344 223.09375 174.234375 222.953125 174.472656 222.859375 C 174.707031 222.761719 174.949219 222.714844 175.207031 222.714844 C 175.460938 222.714844 175.703125 222.765625 175.9375 222.867188 C 176.171875 222.964844 176.378906 223.105469 176.554688 223.285156 C 176.734375 223.46875 176.871094 223.675781 176.964844 223.914062 C 177.058594 224.148438 177.101562 224.394531 177.097656 224.648438 C 177.097656 224.898438 177.050781 225.136719 176.957031 225.367188 C 176.863281 225.59375 176.726562 225.796875 176.550781 225.972656 C 176.375 226.148438 176.171875 226.285156 175.941406 226.378906 C 175.710938 226.476562 175.472656 226.523438 175.222656 226.523438 Z M 175.222656 226.523438 " fill-opacity="1" fill-rule="nonzero"/><path fill="#ffffff" d="M 316.960938 234.460938 C 317.609375 234.460938 318.25 234.398438 318.882812 234.273438 C 319.519531 234.148438 320.132812 233.960938 320.730469 233.710938 C 321.328125 233.464844 321.898438 233.160156 322.433594 232.800781 C 322.972656 232.441406 323.46875 232.035156 323.925781 231.578125 C 324.382812 231.117188 324.792969 230.621094 325.152344 230.082031 C 325.511719 229.546875 325.8125 228.976562 326.058594 228.378906 C 326.308594 227.78125 326.492188 227.164062 326.617188 226.53125 C 326.746094 225.898438 326.808594 225.257812 326.804688 224.609375 C 326.804688 223.960938 326.742188 223.320312 326.617188 222.6875 C 326.488281 222.054688 326.300781 221.4375 326.050781 220.839844 C 325.804688 220.242188 325.5 219.675781 325.140625 219.140625 C 324.78125 218.601562 324.371094 218.105469 323.914062 217.648438 C 323.457031 217.191406 322.957031 216.785156 322.417969 216.425781 C 321.878906 216.066406 321.3125 215.765625 320.714844 215.519531 C 320.117188 215.273438 319.5 215.085938 318.867188 214.960938 C 318.230469 214.835938 317.589844 214.773438 316.941406 214.777344 C 316.296875 214.777344 315.65625 214.839844 315.023438 214.96875 C 314.386719 215.097656 313.773438 215.285156 313.175781 215.53125 C 312.578125 215.78125 312.011719 216.085938 311.476562 216.445312 C 310.9375 216.808594 310.441406 217.21875 309.984375 217.675781 C 309.527344 218.132812 309.121094 218.632812 308.765625 219.171875 C 308.40625 219.710938 308.105469 220.277344 307.859375 220.875 C 307.613281 221.476562 307.425781 222.089844 307.304688 222.726562 C 307.179688 223.359375 307.117188 224 307.117188 224.648438 C 307.121094 225.292969 307.1875 225.933594 307.3125 226.566406 C 307.441406 227.195312 307.628906 227.8125 307.875 228.40625 C 308.125 229 308.429688 229.566406 308.789062 230.101562 C 309.148438 230.640625 309.554688 231.132812 310.011719 231.589844 C 310.46875 232.046875 310.964844 232.453125 311.503906 232.808594 C 312.039062 233.167969 312.605469 233.46875 313.203125 233.714844 C 313.796875 233.960938 314.414062 234.148438 315.046875 234.273438 C 315.679688 234.398438 316.316406 234.460938 316.960938 234.460938 Z M 316.960938 222.742188 C 317.191406 222.773438 317.410156 222.839844 317.617188 222.949219 C 317.820312 223.058594 318 223.199219 318.15625 223.375 C 318.308594 223.546875 318.425781 223.742188 318.507812 223.960938 C 318.589844 224.175781 318.632812 224.402344 318.632812 224.632812 C 318.632812 224.867188 318.589844 225.089844 318.507812 225.308594 C 318.425781 225.523438 318.308594 225.71875 318.15625 225.894531 C 318 226.066406 317.820312 226.210938 317.617188 226.316406 C 317.410156 226.425781 317.191406 226.496094 316.960938 226.523438 C 316.734375 226.496094 316.515625 226.425781 316.308594 226.316406 C 316.105469 226.210938 315.925781 226.066406 315.769531 225.894531 C 315.617188 225.71875 315.5 225.523438 315.417969 225.308594 C 315.335938 225.089844 315.292969 224.867188 315.292969 224.632812 C 315.292969 224.402344 315.335938 224.175781 315.417969 223.960938 C 315.5 223.742188 315.617188 223.546875 315.769531 223.375 C 315.925781 223.199219 316.105469 223.058594 316.308594 222.949219 C 316.515625 222.839844 316.734375 222.773438 316.960938 222.742188 Z M 316.960938 222.742188 " fill-opacity="1" fill-rule="nonzero"/><g clip-path="url(#7cdcf6f965)"><path fill="#ffffff" d="M 33.605469 179.0625 L 23.117188 239.179688 C 23.042969 239.605469 23.015625 240.03125 23.035156 240.460938 C 23.058594 240.890625 23.125 241.3125 23.238281 241.730469 C 23.351562 242.144531 23.511719 242.542969 23.714844 242.921875 C 23.914062 243.300781 24.15625 243.65625 24.433594 243.984375 C 24.714844 244.3125 25.027344 244.601562 25.371094 244.863281 C 25.714844 245.121094 26.082031 245.339844 26.476562 245.515625 C 26.867188 245.691406 27.273438 245.824219 27.695312 245.914062 C 28.117188 246 28.542969 246.042969 28.976562 246.035156 C 29.9375 246.035156 30.847656 245.808594 31.699219 245.359375 L 103.210938 207.714844 C 108.222656 208.445312 113.320312 208.945312 118.386719 209.265625 C 117.597656 213.5 117.195312 217.765625 117.1875 222.070312 C 117.1875 273.71875 175.019531 315.820312 246.09375 315.820312 C 254.703125 315.828125 263.269531 315.203125 271.785156 313.945312 L 343.390625 351.589844 C 343.871094 351.84375 344.378906 352.027344 344.914062 352.136719 C 345.445312 352.25 345.984375 352.285156 346.527344 352.246094 C 347.070312 352.207031 347.597656 352.097656 348.109375 351.910156 C 348.621094 351.722656 349.097656 351.472656 349.539062 351.152344 C 349.996094 350.828125 350.394531 350.445312 350.738281 350.003906 C 351.085938 349.5625 351.363281 349.085938 351.570312 348.566406 C 351.777344 348.046875 351.90625 347.507812 351.960938 346.953125 C 352.015625 346.394531 351.988281 345.84375 351.886719 345.292969 L 341.398438 285.175781 C 363.105469 267.832031 375 245.507812 375 222.070312 C 375 172.996094 322.761719 132.625 256.609375 128.730469 C 257.398438 124.5 257.800781 120.230469 257.8125 115.925781 C 257.8125 64.277344 199.980469 22.175781 128.90625 22.175781 C 57.832031 22.175781 0 64.277344 0 115.925781 C 0 139.480469 11.894531 161.804688 33.605469 179.0625 Z M 363.28125 222.070312 C 363.28125 242.871094 352 262.734375 331.492188 278.027344 C 331.046875 278.359375 330.65625 278.746094 330.320312 279.1875 C 329.984375 279.628906 329.714844 280.109375 329.515625 280.628906 C 329.316406 281.148438 329.191406 281.683594 329.144531 282.238281 C 329.097656 282.792969 329.128906 283.339844 329.238281 283.886719 L 338.289062 335.742188 L 275.535156 302.488281 C 274.6875 302.023438 273.78125 301.800781 272.8125 301.816406 C 272.507812 301.789062 272.207031 301.789062 271.90625 301.816406 C 263.355469 303.164062 254.75 303.839844 246.09375 303.835938 C 181.464844 303.835938 128.90625 267.070312 128.90625 221.804688 C 128.90625 176.542969 181.464844 140.039062 246.09375 140.039062 C 310.722656 140.039062 363.28125 176.777344 363.28125 222.070312 Z M 128.90625 33.984375 C 193.535156 33.984375 246.09375 70.722656 246.09375 116.015625 C 246.089844 120.167969 245.640625 124.269531 244.746094 128.320312 C 185.800781 128.757812 136.347656 158.054688 121.699219 197.695312 C 115.5 197.433594 109.339844 196.816406 103.210938 195.847656 C 101.9375 195.644531 100.726562 195.839844 99.578125 196.433594 L 36.710938 229.453125 L 45.761719 177.597656 C 45.871094 177.050781 45.902344 176.503906 45.855469 175.949219 C 45.808594 175.394531 45.683594 174.859375 45.484375 174.339844 C 45.285156 173.820312 45.015625 173.339844 44.679688 172.898438 C 44.34375 172.457031 43.953125 172.070312 43.507812 171.738281 C 23 156.589844 11.71875 136.726562 11.71875 115.925781 C 11.71875 70.722656 64.453125 33.984375 128.90625 33.984375 Z M 128.90625 33.984375 " fill-opacity="1" fill-rule="nonzero"/></g></svg>