<svg xmlns="http://www.w3.org/2000/svg" xmlns:xlink="http://www.w3.org/1999/xlink" width="500" zoomAndPan="magnify" viewBox="0 0 375 374.999991" height="500" preserveAspectRatio="xMidYMid meet" version="1.0"><defs><clipPath id="2574c15e69"><path d="M 37.5 1 L 342 1 L 342 375 L 37.5 375 Z M 37.5 1 " clip-rule="nonzero"/></clipPath></defs><g clip-path="url(#2574c15e69)"><path fill="#ffffff" d="M 164.152344 309.683594 L 105.589844 309.683594 C 99.507812 309.683594 94.597656 314.59375 94.597656 320.675781 L 94.597656 334.675781 C 94.597656 340.761719 99.507812 345.671875 105.589844 345.671875 L 164.152344 345.671875 C 170.238281 345.671875 175.148438 340.761719 175.148438 334.675781 L 175.148438 320.675781 C 175.148438 314.59375 170.238281 309.683594 164.152344 309.683594 Z M 163.128906 333.648438 L 106.691406 333.648438 L 106.691406 321.703125 L 163.128906 321.703125 Z M 174.929688 96.613281 L 253.5 96.613281 C 261.417969 96.761719 261.417969 108.488281 253.5 108.632812 L 174.929688 108.632812 C 167.011719 108.488281 167.011719 96.6875 174.929688 96.613281 Z M 130.878906 130.109375 L 253.5 130.109375 C 261.417969 130.257812 261.34375 141.984375 253.5 142.128906 L 130.878906 142.128906 C 122.890625 141.984375 122.960938 130.257812 130.878906 130.109375 Z M 130.878906 163.605469 L 253.5 163.605469 C 261.417969 163.753906 261.34375 175.480469 253.5 175.625 L 130.878906 175.625 C 122.890625 175.480469 122.960938 163.753906 130.878906 163.605469 Z M 332.804688 42.890625 L 167.671875 1.550781 C 162.027344 0.0117188 155.726562 3.824219 154.40625 9.539062 L 151.328125 21.925781 L 44.316406 55.277344 C 41.972656 56.007812 39.992188 57.695312 38.894531 59.894531 C 37.71875 62.09375 37.5 64.65625 38.304688 67.003906 L 77.300781 192.191406 C 70.777344 193.875 65.9375 199.8125 65.9375 206.851562 L 65.9375 359.742188 C 65.9375 368.171875 72.753906 374.988281 81.183594 374.988281 L 297.84375 374.988281 C 306.273438 374.988281 313.089844 368.171875 313.089844 359.742188 L 313.089844 229.351562 C 313.089844 222.023438 307.957031 215.9375 301.070312 214.472656 C 301.070312 214.472656 340.722656 56.15625 340.722656 56.15625 C 342.1875 50.363281 338.667969 44.355469 332.804688 42.890625 Z M 50.546875 65.976562 L 147.882812 35.632812 L 140.625 64.585938 L 106.910156 64.585938 C 101.78125 64.585938 97.527344 68.761719 97.527344 73.964844 L 97.527344 191.679688 L 89.6875 191.679688 Z M 274.757812 76.53125 L 274.757812 214.179688 L 165.035156 214.179688 C 164.082031 214.179688 163.199219 213.738281 162.613281 213.078125 L 148.46875 196.734375 C 145.609375 193.363281 141.359375 191.457031 136.886719 191.457031 L 109.621094 191.53125 L 109.621094 76.53125 Z M 301.070312 359.742188 C 301.070312 361.503906 299.601562 362.96875 297.84375 362.96875 L 81.183594 362.96875 C 79.425781 362.96875 77.957031 361.503906 77.957031 359.742188 L 77.957031 206.851562 C 78.105469 202.820312 82.503906 203.699219 85.214844 203.625 C 96.503906 203.625 125.234375 203.476562 136.886719 203.40625 C 137.839844 203.40625 138.71875 203.773438 139.378906 204.503906 L 153.527344 220.847656 C 156.457031 224.222656 160.636719 226.125 165.035156 226.125 L 297.84375 226.125 C 299.675781 226.125 301.070312 227.519531 301.070312 229.351562 Z M 288.753906 214.179688 L 286.777344 214.179688 L 286.777344 73.894531 C 286.777344 68.761719 282.597656 64.511719 277.394531 64.511719 L 153.011719 64.511719 C 155.578125 54.25 163.347656 23.246094 165.839844 13.496094 L 328.847656 54.324219 Z M 288.753906 214.179688 " fill-opacity="1" fill-rule="nonzero"/></g></svg>