<svg xmlns="http://www.w3.org/2000/svg" xmlns:xlink="http://www.w3.org/1999/xlink" width="500" zoomAndPan="magnify" viewBox="0 0 375 374.999991" height="500" preserveAspectRatio="xMidYMid meet" version="1.0"><defs><clipPath id="f376496cb8"><path d="M 342 167 L 372 167 L 372 207 L 342 207 Z M 342 167 " clip-rule="nonzero"/></clipPath></defs><path fill="#d9d9d9" d="M 209.050781 82.574219 C 230.945312 85.542969 250.703125 95.246094 266.160156 109.527344 L 258.609375 117.082031 L 264.527344 122.996094 L 272.078125 115.445312 C 286.363281 130.90625 296.066406 150.660156 299.03125 172.558594 L 321.902344 178.476562 C 317.785156 114.769531 266.839844 63.824219 203.132812 59.703125 L 209.050781 82.574219 " fill-opacity="1" fill-rule="nonzero"/><path fill="#d9d9d9" d="M 90.554688 172.558594 C 93.523438 150.660156 103.222656 130.90625 117.507812 115.445312 L 125.058594 122.996094 L 130.976562 117.082031 L 123.425781 109.527344 C 138.886719 95.246094 158.640625 85.542969 180.535156 82.574219 L 186.453125 59.703125 C 122.746094 63.824219 71.800781 114.769531 67.683594 178.476562 L 90.554688 172.558594 " fill-opacity="1" fill-rule="nonzero"/><path fill="#d9d9d9" d="M 180.535156 291.050781 C 158.640625 288.085938 138.886719 278.382812 123.425781 264.097656 L 130.976562 256.546875 L 125.058594 250.632812 L 117.507812 258.179688 C 103.222656 242.722656 93.523438 222.964844 90.554688 201.070312 L 67.683594 195.152344 C 71.800781 258.859375 122.746094 309.804688 186.453125 313.925781 L 180.535156 291.050781 " fill-opacity="1" fill-rule="nonzero"/><path fill="#d9d9d9" d="M 299.03125 201.070312 C 296.0625 222.964844 286.363281 242.722656 272.078125 258.179688 L 264.527344 250.632812 L 258.609375 256.546875 L 266.160156 264.097656 C 250.703125 278.382812 230.945312 288.085938 209.050781 291.050781 L 203.132812 313.925781 C 266.839844 309.804688 317.785156 258.859375 321.902344 195.152344 L 299.03125 201.070312 " fill-opacity="1" fill-rule="nonzero"/><path fill="#d9d9d9" d="M 9.496094 206.515625 L 0.0898438 167.113281 L 8.230469 167.113281 L 14.171875 194.179688 L 21.378906 167.113281 L 30.835938 167.113281 L 37.746094 194.636719 L 43.792969 167.113281 L 51.800781 167.113281 L 42.234375 206.515625 L 33.792969 206.515625 L 25.945312 177.058594 L 18.121094 206.515625 L 9.496094 206.515625 " fill-opacity="1" fill-rule="nonzero"/><path fill="#d9d9d9" d="M 179.164062 39.402344 L 179.164062 0 L 186.90625 0 L 203.03125 26.3125 L 203.03125 0 L 210.425781 0 L 210.425781 39.402344 L 202.441406 39.402344 L 186.554688 13.707031 L 186.554688 39.402344 L 179.164062 39.402344 " fill-opacity="1" fill-rule="nonzero"/><g clip-path="url(#f376496cb8)"><path fill="#d9d9d9" d="M 342.203125 206.515625 L 342.203125 167.113281 L 371.421875 167.113281 L 371.421875 173.777344 L 350.160156 173.777344 L 350.160156 182.511719 L 369.941406 182.511719 L 369.941406 189.152344 L 350.160156 189.152344 L 350.160156 199.878906 L 372.175781 199.878906 L 372.175781 206.515625 L 342.203125 206.515625 " fill-opacity="1" fill-rule="nonzero"/></g><path fill="#d9d9d9" d="M 178.773438 361.480469 L 186.515625 360.726562 C 186.980469 363.324219 187.925781 365.234375 189.351562 366.453125 C 190.773438 367.671875 192.695312 368.28125 195.117188 368.28125 C 197.675781 368.28125 199.609375 367.738281 200.910156 366.652344 C 202.207031 365.570312 202.855469 364.304688 202.855469 362.851562 C 202.855469 361.917969 202.585938 361.128906 202.035156 360.472656 C 201.488281 359.816406 200.535156 359.25 199.175781 358.765625 C 198.242188 358.441406 196.117188 357.871094 192.804688 357.046875 C 188.539062 355.988281 185.546875 354.6875 183.828125 353.148438 C 181.410156 350.980469 180.199219 348.335938 180.199219 345.21875 C 180.199219 343.210938 180.765625 341.335938 181.902344 339.589844 C 183.042969 337.84375 184.683594 336.507812 186.824219 335.597656 C 188.964844 334.679688 191.550781 334.226562 194.578125 334.226562 C 199.523438 334.226562 203.246094 335.3125 205.746094 337.480469 C 208.246094 339.648438 209.558594 342.542969 209.683594 346.160156 L 201.730469 346.507812 C 201.386719 344.484375 200.65625 343.027344 199.539062 342.140625 C 198.417969 341.253906 196.738281 340.808594 194.5 340.808594 C 192.1875 340.808594 190.375 341.285156 189.066406 342.234375 C 188.226562 342.847656 187.804688 343.660156 187.804688 344.679688 C 187.804688 345.613281 188.199219 346.410156 188.988281 347.074219 C 189.988281 347.917969 192.425781 348.792969 196.296875 349.707031 C 200.171875 350.621094 203.03125 351.566406 204.886719 352.542969 C 206.742188 353.519531 208.191406 354.855469 209.242188 356.546875 C 210.289062 358.242188 210.8125 360.332031 210.8125 362.824219 C 210.8125 365.082031 210.183594 367.195312 208.929688 369.167969 C 207.675781 371.136719 205.902344 372.601562 203.609375 373.5625 C 201.316406 374.519531 198.457031 375 195.035156 375 C 190.054688 375 186.226562 373.847656 183.558594 371.546875 C 180.886719 369.242188 179.292969 365.886719 178.773438 361.480469 " fill-opacity="1" fill-rule="nonzero"/><path fill="#d9d9d9" d="M 155.496094 186.8125 L 54.234375 186.8125 L 169.070312 216.523438 C 160.753906 209.320312 155.496094 198.679688 155.496094 186.8125 " fill-opacity="1" fill-rule="nonzero"/><path fill="#d9d9d9" d="M 230.324219 170.007812 C 230.324219 170.011719 230.324219 170.015625 230.324219 170.019531 C 230.355469 170.078125 230.378906 170.136719 230.40625 170.195312 C 230.375 170.132812 230.351562 170.070312 230.324219 170.007812 Z M 230.324219 203.609375 C 230.324219 203.613281 230.324219 203.617188 230.324219 203.617188 C 230.347656 203.5625 230.371094 203.507812 230.398438 203.453125 C 230.371094 203.503906 230.351562 203.558594 230.324219 203.609375 Z M 229.421875 168.226562 C 229.421875 168.226562 229.421875 168.226562 229.425781 168.230469 C 229.457031 168.289062 229.484375 168.351562 229.515625 168.410156 C 229.484375 168.347656 229.457031 168.285156 229.421875 168.226562 Z M 229.425781 205.398438 C 229.421875 205.398438 229.421875 205.402344 229.421875 205.402344 C 229.453125 205.34375 229.480469 205.28125 229.515625 205.222656 C 229.484375 205.28125 229.457031 205.339844 229.425781 205.398438 Z M 228.4375 166.492188 C 228.4375 166.492188 228.4375 166.496094 228.4375 166.496094 C 228.472656 166.550781 228.496094 166.605469 228.53125 166.660156 C 228.496094 166.605469 228.46875 166.546875 228.4375 166.492188 Z M 228.4375 207.132812 C 228.460938 207.085938 228.488281 207.039062 228.519531 206.992188 C 228.488281 207.039062 228.464844 207.085938 228.4375 207.132812 Z M 214.960938 153.082031 C 215.007812 153.113281 215.058594 153.140625 215.109375 153.167969 C 215.113281 153.167969 215.113281 153.167969 215.113281 153.171875 C 215.0625 153.140625 215.007812 153.113281 214.960938 153.082031 Z M 213.191406 152.089844 C 213.25 152.121094 213.316406 152.148438 213.375 152.183594 C 213.378906 152.183594 213.378906 152.183594 213.382812 152.183594 C 213.320312 152.152344 213.253906 152.121094 213.191406 152.089844 Z M 211.421875 151.207031 C 211.476562 151.230469 211.535156 151.257812 211.589844 151.28125 C 211.59375 151.28125 211.597656 151.285156 211.597656 151.285156 C 211.539062 151.257812 211.480469 151.234375 211.421875 151.207031 Z M 177.996094 222.347656 C 177.992188 222.34375 177.988281 222.34375 177.988281 222.34375 C 178.046875 222.371094 178.113281 222.398438 178.175781 222.425781 C 178.117188 222.398438 178.054688 222.375 177.996094 222.347656 Z M 176.210938 221.445312 C 176.207031 221.445312 176.207031 221.441406 176.203125 221.441406 C 176.269531 221.476562 176.335938 221.511719 176.40625 221.546875 C 176.339844 221.511719 176.277344 221.480469 176.210938 221.445312 Z M 174.476562 220.457031 C 174.476562 220.457031 174.472656 220.457031 174.472656 220.457031 C 174.527344 220.492188 174.585938 220.519531 174.640625 220.550781 C 174.589844 220.519531 174.53125 220.492188 174.476562 220.457031 Z M 161.054688 166.660156 C 161.089844 166.605469 161.113281 166.550781 161.148438 166.496094 C 161.148438 166.496094 161.148438 166.492188 161.148438 166.492188 C 161.117188 166.546875 161.089844 166.605469 161.054688 166.660156 Z M 160.070312 168.410156 C 160.101562 168.351562 160.128906 168.289062 160.160156 168.230469 C 160.164062 168.226562 160.164062 168.226562 160.164062 168.226562 C 160.132812 168.285156 160.105469 168.347656 160.070312 168.410156 Z M 159.179688 170.195312 C 159.207031 170.136719 159.234375 170.078125 159.261719 170.019531 C 159.261719 170.015625 159.261719 170.011719 159.265625 170.007812 C 159.238281 170.070312 159.210938 170.132812 159.179688 170.195312 Z M 335.355469 186.8125 L 237.050781 161.382812 L 261.152344 120.457031 L 220.226562 144.554688 L 194.792969 46.253906 L 194.792969 147.515625 C 189.390625 147.515625 184.242188 148.609375 179.554688 150.578125 C 179.558594 150.578125 179.566406 150.574219 179.574219 150.570312 L 128.433594 120.457031 L 152.535156 161.382812 L 54.234375 186.8125 L 155.496094 186.8125 C 155.496094 192.21875 156.585938 197.367188 158.558594 202.054688 C 158.558594 202.046875 158.554688 202.039062 158.550781 202.035156 L 128.433594 253.171875 L 169.359375 229.070312 L 194.792969 327.375 L 194.792969 226.113281 C 200.195312 226.113281 205.347656 225.019531 210.03125 223.046875 C 210.027344 223.050781 210.019531 223.054688 210.015625 223.058594 L 261.152344 253.171875 L 237.050781 212.246094 L 335.355469 186.8125 " fill-opacity="1" fill-rule="nonzero"/><path fill="#ffffff" d="M 173.828125 162.597656 L 80.226562 186.8125 L 162.761719 186.8125 C 162.761719 177.144531 167.050781 168.472656 173.828125 162.597656 " fill-opacity="1" fill-rule="nonzero"/><path fill="#d9d9d9" d="M 194.792969 147.515625 L 194.792969 46.253906 L 165.082031 161.089844 C 172.289062 152.773438 182.925781 147.515625 194.792969 147.515625 " fill-opacity="1" fill-rule="nonzero"/><path fill="#ffffff" d="M 219.011719 165.847656 L 194.792969 72.246094 L 194.792969 154.785156 C 204.464844 154.785156 213.136719 159.070312 219.011719 165.847656 " fill-opacity="1" fill-rule="nonzero"/><path fill="#ffffff" d="M 215.757812 211.03125 L 309.359375 186.8125 L 226.824219 186.8125 C 226.824219 196.484375 222.539062 205.15625 215.757812 211.03125 " fill-opacity="1" fill-rule="nonzero"/><path fill="#d9d9d9" d="M 194.792969 226.113281 L 194.792969 327.375 L 224.503906 212.539062 C 217.296875 220.855469 206.660156 226.113281 194.792969 226.113281 " fill-opacity="1" fill-rule="nonzero"/><path fill="#ffffff" d="M 170.578125 207.78125 L 194.792969 301.382812 L 194.792969 218.847656 C 185.121094 218.847656 176.453125 214.558594 170.578125 207.78125 " fill-opacity="1" fill-rule="nonzero"/></svg>