<svg xmlns="http://www.w3.org/2000/svg" xmlns:xlink="http://www.w3.org/1999/xlink" width="500" zoomAndPan="magnify" viewBox="0 0 375 374.999991" height="500" preserveAspectRatio="xMidYMid meet" version="1.0"><defs><clipPath id="1b8eeede98"><path d="M 22 259 L 313 259 L 313 360 L 22 360 Z M 22 259 " clip-rule="nonzero"/></clipPath></defs><path fill="#ffffff" d="M 22.078125 172.605469 L 38.59375 172.605469 L 38.59375 134.285156 L 22.078125 134.285156 L 22.078125 172.605469 " fill-opacity="1" fill-rule="nonzero"/><path fill="#ffffff" d="M 22.078125 241.773438 L 38.59375 241.773438 L 38.59375 203.453125 L 22.078125 203.453125 L 22.078125 241.773438 " fill-opacity="1" fill-rule="nonzero"/><path fill="#ffffff" d="M 312.136719 115.03125 L 312.136719 145.023438 C 306.59375 150.453125 301.050781 155.949219 295.554688 161.421875 L 295.554688 45.585938 C 295.554688 37.953125 289.382812 31.761719 281.730469 31.761719 L 52.464844 31.761719 C 44.8125 31.761719 38.640625 37.953125 38.640625 45.585938 L 38.640625 103.410156 L 22.125 103.410156 L 22.125 45.585938 C 22.125 28.839844 35.71875 15.246094 52.464844 15.246094 L 281.730469 15.246094 C 298.476562 15.246094 312.070312 28.839844 312.070312 45.585938 L 312.070312 115.03125 L 312.136719 115.03125 " fill-opacity="1" fill-rule="nonzero"/><g clip-path="url(#1b8eeede98)"><path fill="#ffffff" d="M 303.371094 264.992188 C 306.175781 266.523438 309.101562 267.335938 312.136719 267.496094 L 312.136719 330.007812 C 312.136719 346.6875 298.476562 360.347656 281.730469 360.347656 L 52.464844 360.347656 C 35.71875 360.347656 22.125 346.6875 22.125 330.007812 L 22.125 272.34375 L 38.640625 272.34375 L 38.640625 330.007812 C 38.640625 337.640625 44.8125 343.832031 52.464844 343.832031 L 281.730469 343.832031 C 289.382812 343.832031 295.625 337.640625 295.625 330.007812 L 295.625 278.46875 L 295.554688 278.46875 L 295.554688 260.328125 L 296.597656 259.285156 C 298.359375 261.558594 300.632812 263.484375 303.371094 264.992188 " fill-opacity="1" fill-rule="nonzero"/></g><path fill="#ffffff" d="M 42.351562 249.796875 L 7.351562 249.796875 C 3.382812 249.796875 0.183594 252.976562 0.183594 256.941406 C 0.183594 260.910156 3.382812 264.0625 7.351562 264.0625 L 42.351562 264.0625 C 44.789062 268.167969 49.265625 270.929688 54.390625 270.929688 C 62.113281 270.929688 68.402344 264.667969 68.402344 256.917969 C 68.402344 249.195312 62.113281 242.910156 54.390625 242.910156 C 49.265625 242.910156 44.789062 245.667969 42.351562 249.796875 " fill-opacity="1" fill-rule="nonzero"/><path fill="#ffffff" d="M 42.375 180.605469 L 7.351562 180.605469 C 3.382812 180.605469 0.183594 183.855469 0.183594 187.773438 C 0.183594 191.738281 3.382812 194.964844 7.351562 194.964844 L 42.375 194.964844 C 44.835938 199.046875 49.289062 201.785156 54.390625 201.785156 C 62.113281 201.785156 68.402344 195.519531 68.402344 187.773438 C 68.402344 180.050781 62.113281 173.785156 54.390625 173.785156 C 49.289062 173.785156 44.835938 176.523438 42.375 180.605469 " fill-opacity="1" fill-rule="nonzero"/><path fill="#ffffff" d="M 42.351562 111.53125 L 7.351562 111.53125 C 3.382812 111.53125 0.183594 114.707031 0.183594 118.628906 C 0.183594 122.59375 3.382812 125.773438 7.351562 125.773438 L 42.351562 125.773438 C 44.789062 129.902344 49.265625 132.660156 54.390625 132.660156 C 62.113281 132.660156 68.402344 126.375 68.402344 118.652344 C 68.402344 110.902344 62.113281 104.640625 54.390625 104.640625 C 49.265625 104.640625 44.789062 107.402344 42.351562 111.53125 " fill-opacity="1" fill-rule="nonzero"/><path fill="#ffffff" d="M 339.578125 195.519531 C 318.101562 217.046875 331.066406 203.800781 309.285156 225.558594 C 299.496094 215.585938 289.546875 207.1875 280.035156 197.492188 C 280.035156 197.421875 280.152344 197.027344 280.429688 196.726562 C 307.152344 170.074219 299.890625 177.429688 326.84375 150.984375 C 330.695312 147.160156 335.726562 144.167969 340.691406 141.847656 C 347.511719 138.574219 354.332031 140.78125 360.175781 146.742188 C 365.835938 152.445312 368.269531 159.035156 364.1875 166.339844 C 361.105469 171.816406 356.671875 176.546875 352.824219 181.582031 C 352.359375 182.207031 351.78125 182.785156 351.175781 183.4375 L 349.25 185.363281 L 339.578125 195.519531 " fill-opacity="1" fill-rule="nonzero"/><path fill="#ffffff" d="M 371.195312 197.332031 C 364.886719 203.800781 358.53125 210.109375 352.175781 216.535156 C 340.925781 227.785156 329.71875 239.105469 318.449219 250.355469 C 316.128906 252.699219 313.554688 253.925781 310.328125 252.1875 C 307.59375 250.65625 306.59375 248.105469 307.476562 245.230469 C 308.007812 243.652344 309.355469 242.261719 310.585938 241.03125 C 322.644531 228.828125 361.40625 189.976562 362.796875 188.632812 C 366.113281 185.429688 369.453125 185.363281 372.074219 188.238281 C 374.417969 190.671875 374.117188 194.292969 371.195312 197.332031 " fill-opacity="1" fill-rule="nonzero"/><path fill="#ffffff" d="M 266.375 71.101562 C 266.375 74.71875 263.472656 77.640625 259.832031 77.640625 L 102.289062 77.640625 C 98.671875 77.640625 95.769531 74.71875 95.769531 71.101562 C 95.769531 67.480469 98.671875 64.558594 102.289062 64.558594 L 259.832031 64.558594 C 263.472656 64.558594 266.375 67.480469 266.375 71.101562 " fill-opacity="1" fill-rule="nonzero"/><path fill="#ffffff" d="M 266.375 129.4375 C 266.375 133.054688 263.472656 135.976562 259.832031 135.976562 L 102.289062 135.976562 C 98.671875 135.976562 95.769531 133.054688 95.769531 129.4375 C 95.769531 125.84375 98.671875 122.917969 102.289062 122.917969 L 259.832031 122.917969 C 263.472656 122.917969 266.375 125.84375 266.375 129.4375 " fill-opacity="1" fill-rule="nonzero"/><path fill="#ffffff" d="M 266.234375 186.453125 C 263.613281 189.074219 260.992188 191.695312 258.371094 194.339844 L 102.265625 194.339844 C 98.671875 194.339844 95.746094 191.414062 95.746094 187.796875 C 95.746094 184.179688 98.671875 181.253906 102.265625 181.253906 L 259.832031 181.253906 C 262.988281 181.253906 265.609375 183.484375 266.234375 186.453125 " fill-opacity="1" fill-rule="nonzero"/><path fill="#ffffff" d="M 301.539062 233.5625 C 301.539062 233.5625 235.753906 300.550781 224.621094 308.089844 C 224.621094 308.089844 200.40625 325.878906 188.207031 325.183594 C 187.855469 325.300781 187.625 325.347656 187.347656 325.300781 L 184.332031 328.5 C 183.75 329.148438 182.941406 329.429688 182.175781 329.429688 C 181.476562 329.429688 180.78125 329.21875 180.203125 328.6875 C 179.019531 327.617188 178.902344 325.761719 180.015625 324.535156 L 182.777344 321.613281 C 182.546875 320.960938 182.429688 320.335938 182.382812 319.6875 C 181.269531 307.484375 198.25 282.757812 198.25 282.757812 C 205.417969 271.371094 270.898438 204.148438 270.898438 204.148438 L 286.183594 218.691406 C 286.414062 218.691406 301.539062 233.5625 301.539062 233.5625 " fill-opacity="1" fill-rule="nonzero"/></svg>