<svg xmlns="http://www.w3.org/2000/svg" xmlns:xlink="http://www.w3.org/1999/xlink" width="500" zoomAndPan="magnify" viewBox="0 0 375 374.999991" height="500" preserveAspectRatio="xMidYMid meet" version="1.0"><defs><clipPath id="84fdd84a5f"><path d="M 5.625 125 L 154 125 L 154 220 L 5.625 220 Z M 5.625 125 " clip-rule="nonzero"/></clipPath><clipPath id="20a4a4bf38"><path d="M 93.625 217.761719 L 197.832031 217.761719 L 197.832031 374.953125 L 93.625 374.953125 Z M 93.625 217.761719 " clip-rule="nonzero"/></clipPath><clipPath id="7f6dd3dba7"><path d="M 219.339844 60.300781 L 369.375 60.300781 L 369.375 205.21875 L 219.339844 205.21875 Z M 219.339844 60.300781 " clip-rule="nonzero"/></clipPath></defs><g clip-path="url(#84fdd84a5f)"><path fill="#ffffff" d="M 61.210938 155.097656 L 62.835938 204.703125 L 46.09375 205.25 L 44.46875 155.644531 Z M 153.308594 166.546875 C 153.167969 162.273438 150.996094 158.695312 147.304688 156.597656 C 149.378906 154.269531 150.457031 151.300781 150.351562 148.144531 C 150.246094 144.90625 148.878906 141.898438 146.507812 139.675781 C 144.136719 137.453125 141.042969 136.289062 137.800781 136.394531 L 117.128906 137.230469 C 115.480469 137.285156 114.183594 138.667969 114.238281 140.316406 C 114.265625 141.113281 114.601562 141.851562 115.183594 142.398438 C 115.765625 142.945312 116.527344 143.234375 117.328125 143.207031 L 138 142.371094 C 139.648438 142.316406 141.21875 142.90625 142.421875 144.035156 C 143.628906 145.167969 144.324219 146.695312 144.378906 148.339844 C 144.484375 151.601562 142.027344 154.390625 138.789062 154.691406 L 138.394531 154.71875 L 138.398438 154.8125 C 137.175781 155.210938 136.3125 156.367188 136.339844 157.726562 L 136.339844 157.75 C 136.386719 159.089844 137.324219 160.207031 138.566406 160.539062 L 138.574219 160.695312 L 138.601562 160.695312 C 138.867188 160.683594 139.136719 160.664062 139.410156 160.636719 C 143.128906 160.546875 147.191406 162.414062 147.332031 166.742188 C 147.445312 170.136719 144.777344 172.992188 141.390625 173.117188 L 140.550781 173.152344 L 140.515625 173.152344 C 140.335938 173.152344 140.132812 173.152344 139.914062 173.179688 L 138.769531 173.332031 L 138.777344 173.535156 C 137.785156 174.0625 137.148438 175.121094 137.183594 176.269531 C 137.238281 177.910156 138.621094 179.203125 140.261719 179.148438 L 140.632812 179.132812 C 143.972656 179.144531 146.667969 181.761719 146.78125 185.105469 C 146.832031 186.75 146.242188 188.320312 145.113281 189.523438 C 143.984375 190.730469 142.453125 191.425781 140.808594 191.480469 C 140.742188 191.480469 139.480469 191.5625 138.726562 191.613281 C 137.9375 191.640625 137.203125 191.976562 136.660156 192.554688 C 136.117188 193.136719 135.832031 193.894531 135.855469 194.6875 C 135.910156 196.28125 137.1875 197.539062 138.777344 197.570312 L 139.148438 197.605469 C 141.550781 197.816406 143.421875 199.796875 143.5 202.210938 C 143.542969 203.484375 143.085938 204.699219 142.210938 205.632812 C 141.339844 206.566406 140.15625 207.101562 138.875 207.144531 L 122.789062 207.832031 C 122.699219 207.835938 122.609375 207.84375 122.515625 207.851562 L 122.3125 207.859375 C 122.292969 207.859375 118.242188 207.980469 101.617188 208.445312 C 91.460938 208.730469 86.289062 206.179688 81.726562 203.925781 C 77.832031 202.003906 74.148438 200.183594 68.566406 200.246094 L 67.179688 157.984375 C 74.335938 156.914062 78.921875 152.507812 85.203125 146.464844 C 88.992188 142.828125 93.28125 138.703125 99.1875 134.316406 C 99.199219 134.3125 99.207031 134.304688 99.210938 134.300781 C 99.242188 134.273438 99.273438 134.25 99.304688 134.222656 L 99.324219 134.210938 C 99.355469 134.183594 99.390625 134.152344 99.425781 134.125 C 101.394531 132.347656 103.941406 131.324219 106.597656 131.234375 C 108.460938 131.175781 110.324219 131.578125 111.976562 132.402344 C 112.046875 132.4375 112.390625 132.640625 112.757812 132.859375 C 116.214844 134.914062 117.65625 135.671875 118.253906 135.746094 C 118.359375 135.761719 118.433594 135.773438 118.488281 135.78125 C 118.683594 135.804688 118.722656 135.808594 118.867188 135.804688 L 118.914062 135.804688 C 119.710938 135.777344 120.449219 135.441406 120.992188 134.859375 C 121.539062 134.273438 121.824219 133.515625 121.800781 132.71875 C 121.773438 131.960938 121.449219 131.242188 120.855469 130.640625 C 120.28125 130.058594 115.035156 127.25 114.980469 127.222656 C 112.355469 125.839844 109.386719 125.160156 106.402344 125.261719 C 102.394531 125.390625 98.539062 126.925781 95.539062 129.582031 C 89.371094 134.167969 84.957031 138.410156 81.0625 142.15625 C 75.621094 147.386719 71.941406 150.925781 66.984375 151.945312 C 66.917969 150.339844 65.5625 149.078125 63.953125 149.128906 L 44.277344 149.777344 L 44.234375 148.457031 C 44.207031 147.671875 43.878906 146.949219 43.304688 146.410156 C 42.730469 145.875 41.984375 145.59375 41.203125 145.617188 L 8.515625 146.6875 C 6.898438 146.742188 5.625 148.101562 5.675781 149.71875 C 5.730469 151.335938 7.089844 152.609375 8.707031 152.558594 L 38.460938 151.582031 L 40.449219 212.324219 L 10.699219 213.296875 C 9.078125 213.351562 7.804688 214.710938 7.859375 216.328125 C 7.886719 217.113281 8.214844 217.839844 8.789062 218.375 C 9.359375 218.910156 10.105469 219.191406 10.890625 219.167969 L 43.574219 218.097656 C 45.195312 218.042969 46.46875 216.683594 46.414062 215.066406 L 46.285156 211.121094 L 65.960938 210.476562 C 66.746094 210.449219 67.472656 210.121094 68.007812 209.546875 C 68.546875 208.976562 68.824219 208.226562 68.800781 207.445312 L 68.761719 206.222656 C 72.847656 206.210938 75.617188 207.574219 79.082031 209.289062 C 81.554688 210.507812 84.355469 211.890625 87.972656 212.910156 C 92.097656 214.074219 96.617188 214.566406 101.785156 214.421875 L 105.148438 214.328125 C 105.371094 214.371094 105.59375 214.390625 105.820312 214.382812 L 122.929688 213.820312 C 122.945312 213.824219 122.964844 213.824219 122.992188 213.820312 L 139.078125 213.136719 C 139.46875 213.125 139.851562 213.089844 140.230469 213.035156 C 145.605469 212.28125 149.671875 207.5625 149.492188 202.015625 C 149.414062 199.609375 148.589844 197.402344 147.097656 195.582031 C 150.75 193.289062 152.898438 189.273438 152.753906 184.90625 C 152.648438 181.640625 151.230469 178.574219 148.832031 176.367188 C 151.773438 173.972656 153.433594 170.363281 153.308594 166.546875 " fill-opacity="1" fill-rule="nonzero"/></g><g clip-path="url(#20a4a4bf38)"><path fill="#ffffff" d="M 165.769531 318.957031 L 161.117188 335.050781 L 113.4375 321.265625 L 118.089844 305.175781 Z M 189.992188 235.710938 C 187.679688 235.042969 185.328125 235.144531 183.136719 236 C 182.082031 231.820312 178.925781 228.535156 174.730469 227.320312 C 171.59375 226.414062 168.234375 226.816406 165.398438 228.410156 C 164.027344 224.875 161.105469 222.179688 157.441406 221.121094 C 153.332031 219.933594 149.253906 220.894531 146.121094 223.753906 C 144.550781 221.066406 142.058594 219.125 139.027344 218.246094 C 132.585938 216.386719 125.832031 220.109375 123.972656 226.554688 L 118.378906 246.472656 C 118.15625 247.238281 118.246094 248.042969 118.632812 248.746094 C 119.019531 249.445312 119.65625 249.953125 120.421875 250.175781 C 121.1875 250.394531 121.992188 250.304688 122.695312 249.917969 C 123.394531 249.53125 123.902344 248.898438 124.125 248.125 L 129.714844 228.210938 C 130.171875 226.628906 131.222656 225.316406 132.667969 224.519531 C 134.113281 223.71875 135.785156 223.53125 137.367188 223.992188 C 140.496094 224.894531 142.390625 228.09375 141.679688 231.269531 L 141.582031 231.648438 L 141.671875 231.675781 C 141.671875 232.964844 142.507812 234.140625 143.808594 234.535156 L 143.828125 234.539062 C 145.117188 234.914062 146.46875 234.363281 147.167969 233.285156 L 147.320312 233.328125 L 147.328125 233.300781 C 147.402344 233.042969 147.46875 232.78125 147.523438 232.515625 C 148.585938 228.949219 151.621094 225.664062 155.78125 226.867188 C 159.042969 227.808594 160.933594 231.222656 160.003906 234.488281 L 159.777344 235.296875 L 159.769531 235.328125 C 159.710938 235.5 159.652344 235.691406 159.609375 235.910156 L 159.398438 237.042969 L 159.597656 237.097656 C 159.789062 238.207031 160.601562 239.140625 161.703125 239.460938 C 163.285156 239.917969 164.9375 239.003906 165.398438 237.425781 L 165.492188 237.066406 C 166.535156 233.894531 169.859375 232.136719 173.070312 233.066406 C 174.652344 233.523438 175.964844 234.570312 176.761719 236.015625 C 177.558594 237.464844 177.746094 239.132812 177.289062 240.714844 C 177.269531 240.777344 176.960938 242.003906 176.773438 242.734375 C 176.324219 244.3125 177.238281 245.960938 178.8125 246.414062 C 180.339844 246.859375 181.933594 246.027344 182.453125 244.527344 L 182.605469 244.1875 C 183.546875 241.964844 186.007812 240.796875 188.328125 241.46875 C 190.859375 242.199219 192.324219 244.855469 191.589844 247.394531 L 187.273438 262.90625 C 187.25 262.992188 187.226562 263.082031 187.210938 263.171875 L 187.152344 263.367188 C 187.148438 263.386719 185.964844 267.429688 181.316406 283.230469 C 178.445312 292.976562 174.421875 297.105469 170.871094 300.75 C 167.835938 303.859375 164.96875 306.800781 163.300781 312.128906 L 122.683594 300.390625 C 123.875 293.25 121.101562 287.527344 117.296875 279.6875 C 115.003906 274.960938 112.40625 269.605469 110.0625 262.636719 L 110.054688 262.605469 C 110.039062 262.566406 110.027344 262.53125 110.011719 262.492188 L 110 262.46875 C 109.984375 262.425781 109.972656 262.390625 109.953125 262.347656 C 108.871094 259.925781 108.683594 257.1875 109.421875 254.636719 C 109.941406 252.839844 110.898438 251.195312 112.195312 249.878906 C 112.25 249.824219 112.550781 249.558594 112.871094 249.277344 C 115.894531 246.625 117.058594 245.488281 117.316406 244.945312 C 117.359375 244.847656 117.394531 244.78125 117.417969 244.730469 C 117.503906 244.554688 117.519531 244.515625 117.558594 244.375 L 117.570312 244.332031 C 118.027344 242.75 117.113281 241.09375 115.53125 240.636719 C 114.800781 240.425781 114.019531 240.511719 113.261719 240.886719 C 112.527344 241.257812 108.238281 245.378906 108.195312 245.421875 C 106.070312 247.492188 104.507812 250.105469 103.679688 252.976562 C 102.566406 256.824219 102.832031 260.96875 104.429688 264.640625 C 106.886719 271.925781 109.558594 277.433594 111.917969 282.296875 C 115.210938 289.085938 117.4375 293.679688 116.875 298.710938 C 115.328125 298.277344 113.710938 299.175781 113.265625 300.722656 L 107.796875 319.636719 L 106.527344 319.269531 C 105.777344 319.050781 104.984375 319.140625 104.296875 319.519531 C 103.609375 319.898438 103.109375 320.519531 102.894531 321.273438 L 93.808594 352.691406 C 93.359375 354.246094 94.261719 355.875 95.816406 356.328125 C 96.566406 356.542969 97.359375 356.457031 98.046875 356.078125 C 98.734375 355.699219 99.234375 355.074219 99.453125 354.320312 L 107.71875 325.722656 L 166.101562 342.601562 L 157.835938 371.199219 C 157.617188 371.953125 157.703125 372.746094 158.082031 373.429688 C 158.464844 374.121094 159.085938 374.617188 159.839844 374.835938 C 160.242188 374.953125 160.65625 374.980469 161.058594 374.921875 C 161.410156 374.875 161.753906 374.761719 162.070312 374.585938 C 162.757812 374.207031 163.257812 373.582031 163.476562 372.828125 L 172.558594 341.414062 C 172.777344 340.660156 172.683594 339.867188 172.308594 339.179688 C 171.929688 338.492188 171.304688 337.996094 170.554688 337.777344 L 166.757812 336.679688 L 172.226562 317.769531 C 172.445312 317.015625 172.355469 316.222656 171.976562 315.535156 C 171.597656 314.847656 170.972656 314.347656 170.222656 314.132812 L 169.046875 313.792969 C 170.300781 309.898438 172.453125 307.6875 175.152344 304.921875 C 177.074219 302.949219 179.253906 300.710938 181.34375 297.585938 C 183.722656 294.023438 185.589844 289.878906 187.050781 284.917969 L 188 281.6875 C 188.109375 281.492188 188.199219 281.285156 188.261719 281.066406 L 193.015625 264.625 C 193.019531 264.605469 193.027344 264.585938 193.03125 264.5625 L 197.351562 249.054688 C 199 243.347656 195.699219 237.363281 189.992188 235.710938 " fill-opacity="1" fill-rule="nonzero"/></g><path fill="#ffffff" d="M 320.257812 265.625 L 292.414062 306.714844 L 278.546875 297.316406 L 306.390625 256.230469 Z M 358.152344 276.9375 C 358.003906 276.167969 357.5625 275.5 356.917969 275.058594 L 329.84375 256.714844 C 329.195312 256.273438 328.414062 256.113281 327.644531 256.261719 C 326.871094 256.410156 326.203125 256.847656 325.769531 257.496094 L 323.550781 260.765625 L 307.253906 249.722656 C 306.605469 249.28125 305.820312 249.121094 305.054688 249.269531 C 304.28125 249.417969 303.617188 249.855469 303.175781 250.503906 L 302.488281 251.519531 C 299.171875 249.125 297.738281 246.390625 295.941406 242.96875 C 294.660156 240.53125 293.207031 237.765625 290.878906 234.8125 C 288.222656 231.449219 284.859375 228.394531 280.59375 225.472656 L 277.816406 223.570312 C 277.660156 223.40625 277.492188 223.257812 277.300781 223.128906 L 263.132812 213.53125 C 263.121094 213.519531 263.105469 213.507812 263.082031 213.492188 L 249.664062 204.59375 C 244.75 201.261719 238.035156 202.550781 234.703125 207.46875 C 233.351562 209.460938 232.722656 211.730469 232.859375 214.078125 C 228.558594 213.789062 224.457031 215.777344 222.007812 219.390625 C 220.175781 222.09375 219.519531 225.410156 220.160156 228.605469 C 216.375 228.8125 212.910156 230.757812 210.769531 233.917969 C 208.371094 237.457031 208.023438 241.632812 209.777344 245.5 C 206.730469 246.160156 204.117188 247.929688 202.34375 250.542969 C 200.523438 253.226562 199.859375 256.464844 200.472656 259.65625 C 201.085938 262.847656 202.902344 265.605469 205.59375 267.429688 L 222.804688 278.902344 C 223.46875 279.351562 224.265625 279.515625 225.050781 279.363281 C 225.832031 279.210938 226.511719 278.765625 226.957031 278.105469 C 227.882812 276.738281 227.527344 274.875 226.15625 273.949219 L 208.941406 262.476562 C 206.121094 260.566406 205.382812 256.71875 207.292969 253.898438 C 209.121094 251.199219 212.746094 250.386719 215.546875 252.046875 L 215.882812 252.253906 L 215.933594 252.175781 C 217.160156 252.574219 218.535156 252.144531 219.308594 251.03125 L 219.324219 251.011719 C 220.074219 249.898438 219.972656 248.445312 219.164062 247.445312 L 219.25 247.316406 L 219.226562 247.300781 C 219.003906 247.148438 218.773438 247.003906 218.539062 246.867188 C 215.476562 244.757812 213.289062 240.859375 215.71875 237.273438 C 217.625 234.460938 221.460938 233.71875 224.277344 235.613281 L 224.972656 236.074219 L 225 236.097656 C 225.144531 236.199219 225.308594 236.320312 225.503906 236.425781 L 226.515625 236.976562 L 226.628906 236.804688 C 227.746094 236.964844 228.882812 236.480469 229.527344 235.53125 C 229.972656 234.871094 230.136719 234.078125 229.984375 233.296875 C 229.835938 232.511719 229.390625 231.835938 228.730469 231.390625 L 228.417969 231.1875 C 225.726562 229.214844 225.082031 225.511719 226.957031 222.742188 C 227.882812 221.382812 229.28125 220.457031 230.90625 220.148438 C 232.53125 219.835938 234.171875 220.171875 235.539062 221.097656 C 235.589844 221.132812 236.660156 221.808594 237.296875 222.210938 C 237.953125 222.652344 238.746094 222.8125 239.523438 222.664062 C 240.304688 222.511719 240.980469 222.066406 241.425781 221.410156 C 242.320312 220.089844 242.023438 218.320312 240.757812 217.363281 L 240.484375 217.113281 C 238.660156 215.53125 238.3125 212.832031 239.664062 210.828125 C 240.382812 209.773438 241.464844 209.0625 242.71875 208.820312 C 243.976562 208.578125 245.25 208.839844 246.308594 209.558594 L 259.726562 218.457031 C 259.800781 218.507812 259.878906 218.554688 259.960938 218.601562 L 260.125 218.714844 C 260.152344 218.730469 263.773438 221.203125 277.214844 230.40625 C 285.597656 236.144531 288.28125 241.25 290.652344 245.753906 C 292.671875 249.597656 294.582031 253.238281 299.132812 256.46875 L 275.414062 291.46875 C 268.996094 288.128906 262.695312 289 254.0625 290.195312 C 248.859375 290.914062 242.964844 291.726562 235.609375 291.804688 C 235.597656 291.804688 235.585938 291.804688 235.582031 291.804688 C 235.539062 291.804688 235.496094 291.808594 235.464844 291.8125 L 235.429688 291.8125 C 235.386719 291.816406 235.347656 291.816406 235.300781 291.820312 C 232.664062 292.101562 230 291.433594 227.800781 289.945312 C 226.257812 288.894531 224.988281 287.476562 224.136719 285.839844 C 224.101562 285.769531 223.941406 285.398438 223.773438 285.011719 C 222.183594 281.3125 221.464844 279.855469 221.027344 279.441406 C 220.949219 279.367188 220.894531 279.316406 220.851562 279.277344 C 220.710938 279.140625 220.683594 279.117188 220.558594 279.035156 L 220.523438 279.007812 C 219.160156 278.085938 217.300781 278.445312 216.375 279.808594 C 215.949219 280.4375 215.792969 281.207031 215.917969 282.042969 C 216.039062 282.867188 218.632812 288.207031 218.660156 288.261719 C 219.976562 290.925781 221.976562 293.21875 224.449219 294.894531 C 227.765625 297.140625 231.789062 298.167969 235.777344 297.78125 C 243.460938 297.695312 249.527344 296.859375 254.882812 296.117188 C 262.355469 295.082031 267.414062 294.386719 272.023438 296.472656 C 271.132812 297.8125 271.488281 299.625 272.820312 300.53125 L 289.117188 311.574219 L 288.378906 312.667969 C 287.472656 314.007812 287.824219 315.835938 289.160156 316.746094 L 316.234375 335.089844 C 316.839844 335.503906 317.5625 335.671875 318.285156 335.566406 C 318.335938 335.5625 318.386719 335.554688 318.4375 335.542969 C 319.207031 335.394531 319.875 334.957031 320.3125 334.308594 C 320.753906 333.660156 320.914062 332.878906 320.765625 332.105469 C 320.617188 331.335938 320.175781 330.667969 319.527344 330.230469 L 294.886719 313.53125 L 328.980469 263.222656 L 353.621094 279.921875 C 354.273438 280.359375 355.054688 280.519531 355.824219 280.371094 C 356.59375 280.222656 357.261719 279.785156 357.699219 279.136719 C 358.140625 278.488281 358.300781 277.707031 358.152344 276.9375 " fill-opacity="1" fill-rule="nonzero"/><g clip-path="url(#7f6dd3dba7)"><path fill="#ffffff" d="M 333.898438 132.117188 L 320.675781 142.402344 L 290.203125 103.222656 L 303.425781 92.941406 Z M 368.761719 114.109375 C 367.765625 112.832031 365.917969 112.601562 364.640625 113.59375 L 341.144531 131.871094 L 303.832031 83.898438 L 327.332031 65.625 C 327.949219 65.144531 328.339844 64.449219 328.4375 63.671875 C 328.539062 62.890625 328.324219 62.121094 327.84375 61.503906 C 327.363281 60.886719 326.667969 60.492188 325.890625 60.394531 C 325.109375 60.296875 324.339844 60.507812 323.722656 60.988281 L 297.910156 81.066406 C 296.632812 82.0625 296.398438 83.910156 297.394531 85.1875 L 299.816406 88.304688 L 284.277344 100.390625 C 283.660156 100.871094 283.265625 101.566406 283.167969 102.34375 C 283.070312 103.125 283.28125 103.894531 283.765625 104.511719 L 284.515625 105.476562 C 281.214844 107.890625 278.171875 108.414062 274.359375 109.066406 C 271.644531 109.53125 268.570312 110.058594 265.042969 111.359375 C 261.019531 112.84375 257.074219 115.097656 252.976562 118.253906 L 250.3125 120.308594 C 250.105469 120.402344 249.914062 120.519531 249.734375 120.660156 L 236.226562 131.167969 C 236.210938 131.179688 236.191406 131.191406 236.171875 131.207031 L 223.5625 141.214844 C 221.296875 142.980469 219.847656 145.523438 219.492188 148.382812 C 219.136719 151.242188 219.910156 154.066406 221.675781 156.332031 C 223.152344 158.234375 225.117188 159.535156 227.390625 160.128906 C 225.785156 164.132812 226.410156 168.644531 229.089844 172.09375 C 231.09375 174.671875 234.046875 176.320312 237.28125 176.695312 C 236.3125 180.363281 237.089844 184.257812 239.4375 187.269531 C 242.058594 190.644531 245.921875 192.265625 250.140625 191.792969 C 249.828125 194.894531 250.703125 197.925781 252.644531 200.421875 C 255.410156 203.976562 259.773438 205.578125 263.949219 204.988281 C 265.980469 204.703125 267.96875 203.898438 269.703125 202.550781 L 285.933594 189.722656 C 287.238281 188.710938 287.472656 186.828125 286.460938 185.527344 C 285.972656 184.898438 285.265625 184.496094 284.472656 184.398438 C 283.675781 184.296875 282.894531 184.515625 282.261719 185.007812 L 266.03125 197.832031 C 264.730469 198.84375 263.109375 199.289062 261.472656 199.082031 C 259.832031 198.878906 258.371094 198.050781 257.363281 196.75 C 255.359375 194.175781 255.707031 190.476562 258.148438 188.328125 L 258.453125 188.074219 L 258.390625 188 C 259.152344 186.960938 259.167969 185.515625 258.347656 184.433594 L 258.332031 184.417969 C 257.507812 183.359375 256.09375 183.003906 254.894531 183.464844 L 254.796875 183.34375 L 254.773438 183.363281 C 254.5625 183.527344 254.355469 183.699219 254.152344 183.882812 C 251.195312 186.144531 246.8125 187.019531 244.152344 183.601562 C 242.070312 180.917969 242.546875 177.042969 245.21875 174.945312 L 245.875 174.429688 L 245.902344 174.410156 C 246.046875 174.304688 246.210938 174.183594 246.371094 174.03125 L 247.207031 173.238281 L 247.082031 173.078125 C 247.578125 172.066406 247.46875 170.835938 246.761719 169.929688 C 245.753906 168.632812 243.878906 168.398438 242.578125 169.40625 L 242.292969 169.640625 C 239.582031 171.59375 235.863281 171.058594 233.8125 168.421875 C 231.71875 165.730469 232.203125 161.84375 234.894531 159.753906 C 234.945312 159.710938 235.917969 158.90625 236.496094 158.421875 C 237.121094 157.933594 237.515625 157.234375 237.613281 156.445312 C 237.714844 155.65625 237.5 154.875 237.011719 154.246094 C 236.03125 152.988281 234.257812 152.722656 232.957031 153.632812 L 232.632812 153.820312 C 230.566406 155.0625 227.890625 154.5625 226.40625 152.65625 C 225.621094 151.648438 225.277344 150.394531 225.4375 149.125 C 225.597656 147.859375 226.238281 146.730469 227.25 145.941406 L 239.855469 135.933594 C 239.929688 135.878906 240 135.816406 240.066406 135.757812 L 240.226562 135.628906 C 240.246094 135.617188 243.691406 132.953125 256.625 122.992188 C 264.675781 116.789062 270.359375 115.816406 275.375 114.960938 C 279.65625 114.226562 283.703125 113.53125 288.1875 110.199219 L 314.144531 143.574219 C 308.984375 148.648438 307.867188 154.90625 306.332031 163.488281 C 305.410156 168.65625 304.363281 174.515625 302.164062 181.53125 L 302.15625 181.558594 C 302.144531 181.601562 302.132812 181.640625 302.125 181.679688 L 302.117188 181.707031 C 302.105469 181.746094 302.09375 181.785156 302.082031 181.832031 C 301.535156 184.425781 300.078125 186.75 297.980469 188.382812 C 296.507812 189.527344 294.765625 190.296875 292.941406 190.601562 C 292.859375 190.613281 292.464844 190.652344 292.042969 190.691406 C 288.035156 191.058594 286.425781 191.292969 285.898438 191.582031 C 285.804688 191.632812 285.738281 191.671875 285.6875 191.695312 C 285.519531 191.789062 285.480469 191.808594 285.367188 191.898438 L 285.332031 191.925781 C 284.03125 192.9375 283.796875 194.816406 284.808594 196.117188 C 285.273438 196.71875 285.960938 197.105469 286.792969 197.246094 C 287.59375 197.378906 293.386719 196.582031 293.554688 196.558594 C 296.492188 196.132812 299.292969 194.9375 301.652344 193.101562 C 304.816406 190.640625 307.035156 187.132812 307.898438 183.222656 C 310.191406 175.886719 311.269531 169.859375 312.21875 164.539062 C 313.546875 157.109375 314.445312 152.085938 317.855469 148.34375 C 318.335938 148.949219 319.023438 149.339844 319.796875 149.433594 C 320.574219 149.53125 321.34375 149.320312 321.960938 148.839844 L 337.503906 136.753906 L 338.3125 137.792969 C 339.304688 139.074219 341.152344 139.300781 342.429688 138.308594 L 368.246094 118.230469 C 368.867188 117.75 369.257812 117.054688 369.355469 116.277344 C 369.453125 115.5 369.242188 114.730469 368.761719 114.109375 " fill-opacity="1" fill-rule="nonzero"/></g><path fill="#ffffff" d="M 186.191406 54.785156 L 139.515625 71.660156 L 133.820312 55.90625 L 180.496094 39.03125 Z M 228.535156 88.542969 C 227.171875 84.773438 224.519531 81.582031 221.070312 79.546875 C 214.800781 75.101562 209.398438 72.214844 204.632812 69.664062 C 197.980469 66.109375 193.476562 63.699219 190.972656 59.300781 C 192.480469 58.742188 193.261719 57.0625 192.714844 55.550781 L 186.019531 37.035156 L 187.261719 36.585938 C 188 36.320312 188.589844 35.78125 188.921875 35.070312 C 189.253906 34.359375 189.292969 33.5625 189.023438 32.828125 L 177.90625 2.070312 C 177.640625 1.335938 177.101562 0.746094 176.390625 0.414062 C 175.679688 0.078125 174.882812 0.0429688 174.148438 0.308594 C 173.410156 0.574219 172.820312 1.113281 172.488281 1.824219 C 172.15625 2.535156 172.117188 3.332031 172.382812 4.070312 L 182.503906 32.0625 L 125.351562 52.726562 L 115.230469 24.730469 C 114.964844 23.996094 114.425781 23.402344 113.714844 23.070312 C 113.003906 22.738281 112.207031 22.699219 111.472656 22.964844 C 110.734375 23.234375 110.144531 23.769531 109.8125 24.480469 C 109.480469 25.191406 109.441406 25.988281 109.707031 26.726562 L 120.828125 57.484375 C 121.09375 58.21875 121.632812 58.808594 122.34375 59.140625 C 123.050781 59.472656 123.851562 59.511719 124.585938 59.242188 L 128.300781 57.902344 L 134.992188 76.417969 C 135.257812 77.15625 135.796875 77.742188 136.507812 78.078125 C 137.21875 78.410156 138.015625 78.449219 138.753906 78.179688 L 139.902344 77.765625 C 141.179688 81.652344 140.734375 84.703125 140.175781 88.53125 C 139.78125 91.253906 139.332031 94.347656 139.480469 98.105469 C 139.648438 102.386719 140.574219 106.835938 142.308594 111.707031 L 143.4375 114.875 C 143.464844 115.097656 143.515625 115.320312 143.59375 115.535156 L 149.414062 131.632812 C 149.417969 131.648438 149.425781 131.667969 149.433594 131.691406 L 155.054688 146.777344 C 157.078125 152.363281 163.265625 155.265625 168.851562 153.246094 C 171.117188 152.425781 172.960938 150.960938 174.230469 148.980469 C 176.882812 151.195312 180.289062 152.148438 183.652344 151.675781 C 184.484375 151.5625 185.316406 151.355469 186.128906 151.0625 C 189.203125 149.949219 191.683594 147.652344 193.039062 144.691406 C 196.226562 146.75 200.175781 147.210938 203.761719 145.914062 C 207.785156 144.460938 210.515625 141.285156 211.371094 137.128906 C 214.222656 138.382812 217.378906 138.492188 220.351562 137.417969 C 223.398438 136.316406 225.839844 134.085938 227.21875 131.144531 C 228.597656 128.199219 228.75 124.898438 227.648438 121.847656 L 220.464844 102.445312 C 220.191406 101.695312 219.644531 101.09375 218.921875 100.757812 C 218.199219 100.417969 217.386719 100.378906 216.636719 100.652344 C 215.886719 100.921875 215.285156 101.46875 214.949219 102.191406 C 214.609375 102.917969 214.570312 103.726562 214.84375 104.484375 L 222.027344 123.882812 C 222.585938 125.433594 222.507812 127.109375 221.808594 128.605469 C 221.105469 130.101562 219.867188 131.234375 218.316406 131.792969 C 215.25 132.902344 211.839844 131.429688 210.550781 128.4375 L 210.402344 128.074219 L 210.316406 128.109375 C 209.558594 127.066406 208.191406 126.605469 206.910156 127.050781 L 206.890625 127.058594 C 205.625 127.515625 204.855469 128.753906 204.921875 130.039062 L 204.777344 130.089844 L 204.785156 130.117188 C 204.875 130.367188 204.980469 130.621094 205.085938 130.867188 C 206.324219 134.375 205.804688 138.820312 201.730469 140.292969 C 198.535156 141.445312 194.996094 139.792969 193.828125 136.605469 L 193.539062 135.820312 L 193.53125 135.789062 C 193.472656 135.617188 193.410156 135.425781 193.316406 135.226562 L 192.816406 134.1875 L 192.628906 134.253906 C 191.820312 133.472656 190.613281 133.195312 189.535156 133.585938 C 187.988281 134.140625 187.183594 135.855469 187.746094 137.398438 L 187.878906 137.746094 C 188.898438 140.925781 187.238281 144.304688 184.097656 145.4375 C 182.546875 146 180.871094 145.921875 179.375 145.21875 C 177.878906 144.519531 176.75 143.277344 176.1875 141.730469 C 176.164062 141.664062 175.699219 140.492188 175.417969 139.792969 C 174.855469 138.253906 173.148438 137.457031 171.605469 138.011719 C 170.109375 138.554688 169.304688 140.160156 169.769531 141.679688 L 169.847656 142.046875 C 170.390625 144.394531 169.085938 146.785156 166.8125 147.609375 C 165.613281 148.039062 164.316406 147.980469 163.160156 147.4375 C 162.003906 146.898438 161.125 145.9375 160.691406 144.734375 L 155.066406 129.648438 C 155.035156 129.5625 155 129.476562 154.964844 129.394531 L 154.890625 129.203125 C 154.886719 129.183594 153.476562 125.238281 147.941406 109.699219 C 144.53125 100.128906 145.363281 94.421875 146.09375 89.386719 C 146.71875 85.089844 147.3125 81.023438 145.527344 75.730469 L 185.292969 61.355469 C 188.519531 67.832031 194.128906 70.828125 201.816406 74.9375 C 206.445312 77.414062 211.695312 80.222656 217.6875 84.476562 L 217.714844 84.5 C 217.75 84.523438 217.78125 84.546875 217.816406 84.566406 L 217.835938 84.578125 C 217.871094 84.601562 217.90625 84.625 217.949219 84.648438 C 220.246094 85.972656 222.007812 88.078125 222.914062 90.578125 C 223.546875 92.332031 223.738281 94.226562 223.464844 96.054688 C 223.453125 96.128906 223.363281 96.519531 223.269531 96.9375 C 222.382812 100.863281 222.109375 102.464844 222.222656 103.058594 C 222.242188 103.160156 222.257812 103.238281 222.265625 103.292969 C 222.300781 103.484375 222.308594 103.523438 222.359375 103.660156 L 222.375 103.699219 C 222.644531 104.449219 223.191406 105.050781 223.914062 105.390625 C 224.636719 105.726562 225.449219 105.765625 226.199219 105.496094 C 226.910156 105.238281 227.496094 104.703125 227.882812 103.957031 C 228.265625 103.226562 229.308594 97.367188 229.320312 97.308594 C 229.820312 94.386719 229.550781 91.355469 228.535156 88.542969 " fill-opacity="1" fill-rule="nonzero"/><path fill="#ffffff" d="M 219.601562 194.976562 C 213.558594 209.09375 188.667969 214.164062 181.917969 215.292969 C 177.910156 209.800781 163.871094 188.902344 170.6875 174.132812 C 170.699219 174.109375 170.710938 174.082031 170.722656 174.058594 C 172.0625 170.925781 174.539062 168.507812 177.699219 167.242188 C 179.234375 166.628906 180.835938 166.320312 182.441406 166.320312 C 184.140625 166.320312 185.84375 166.664062 187.453125 167.355469 C 191.75 169.195312 194.691406 173.230469 195.128906 177.886719 C 195.234375 178.980469 195.925781 179.933594 196.9375 180.367188 C 197.949219 180.796875 199.117188 180.644531 199.980469 179.960938 C 203.65625 177.066406 208.605469 176.40625 212.898438 178.246094 C 216.03125 179.585938 218.449219 182.0625 219.714844 185.222656 C 220.980469 188.382812 220.941406 191.847656 219.601562 194.976562 Z M 225.292969 182.988281 C 223.429688 178.339844 219.867188 174.695312 215.261719 172.722656 C 210.359375 170.625 204.875 170.738281 200.140625 172.882812 C 198.425781 167.976562 194.71875 163.929688 189.816406 161.832031 C 185.210938 159.859375 180.113281 159.804688 175.464844 161.664062 C 170.828125 163.519531 167.191406 167.070312 165.21875 171.652344 C 162.984375 176.515625 162.328125 182.167969 163.273438 188.457031 C 164 193.320312 165.683594 198.582031 168.277344 204.097656 C 172.632812 213.355469 178.027344 220.128906 178.253906 220.410156 C 178.828125 221.128906 179.695312 221.539062 180.601562 221.539062 C 180.722656 221.539062 180.847656 221.53125 180.976562 221.515625 C 181.332031 221.46875 189.910156 220.367188 199.574219 216.964844 C 205.324219 214.945312 210.269531 212.519531 214.273438 209.761719 C 219.480469 206.175781 223.132812 201.996094 225.125 197.339844 C 227.09375 192.734375 227.15625 187.636719 225.292969 182.988281 " fill-opacity="1" fill-rule="nonzero"/><path fill="#ffffff" d="M 210.976562 183.621094 C 209.65625 183.054688 208.128906 183.667969 207.5625 184.988281 C 207 186.304688 207.609375 187.835938 208.929688 188.398438 C 209.699219 188.726562 210.054688 189.621094 209.726562 190.390625 C 209.164062 191.707031 209.773438 193.234375 211.09375 193.800781 C 211.429688 193.945312 211.773438 194.011719 212.117188 194.011719 C 213.125 194.011719 214.082031 193.421875 214.503906 192.433594 C 215.960938 189.03125 214.378906 185.078125 210.976562 183.621094 " fill-opacity="1" fill-rule="nonzero"/></svg>