<svg xmlns="http://www.w3.org/2000/svg" xmlns:xlink="http://www.w3.org/1999/xlink" width="500" zoomAndPan="magnify" viewBox="0 0 375 374.999991" height="500" preserveAspectRatio="xMidYMid meet" version="1.0"><defs><clipPath id="fe52cf3521"><path d="M 0 71.589844 L 375 71.589844 L 375 303.339844 L 0 303.339844 Z M 0 71.589844 " clip-rule="nonzero"/></clipPath></defs><g clip-path="url(#fe52cf3521)"><path fill="#222222" d="M 330.152344 71.589844 L 44.847656 71.589844 C 43.390625 71.59375 41.933594 71.664062 40.480469 71.808594 C 39.027344 71.953125 37.585938 72.171875 36.15625 72.457031 C 34.722656 72.742188 33.308594 73.097656 31.914062 73.523438 C 30.515625 73.945312 29.144531 74.4375 27.796875 75 C 26.449219 75.558594 25.132812 76.179688 23.84375 76.871094 C 22.558594 77.558594 21.308594 78.308594 20.09375 79.121094 C 18.882812 79.929688 17.710938 80.800781 16.582031 81.726562 C 15.453125 82.652344 14.375 83.632812 13.34375 84.664062 C 12.308594 85.695312 11.332031 86.773438 10.40625 87.902344 C 9.480469 89.03125 8.609375 90.203125 7.800781 91.414062 C 6.988281 92.628906 6.238281 93.878906 5.550781 95.164062 C 4.859375 96.453125 4.238281 97.769531 3.675781 99.117188 C 3.117188 100.464844 2.625 101.839844 2.203125 103.234375 C 1.777344 104.632812 1.421875 106.046875 1.136719 107.476562 C 0.847656 108.90625 0.632812 110.347656 0.488281 111.800781 C 0.34375 113.253906 0.273438 114.710938 0.269531 116.167969 L 0.269531 258.820312 C 0.273438 260.28125 0.34375 261.738281 0.488281 263.1875 C 0.632812 264.640625 0.847656 266.082031 1.136719 267.515625 C 1.421875 268.945312 1.777344 270.359375 2.203125 271.753906 C 2.625 273.152344 3.117188 274.523438 3.675781 275.871094 C 4.238281 277.21875 4.859375 278.539062 5.550781 279.824219 C 6.238281 281.113281 6.988281 282.363281 7.800781 283.574219 C 8.609375 284.789062 9.480469 285.960938 10.40625 287.085938 C 11.332031 288.214844 12.308594 289.296875 13.34375 290.328125 C 14.375 291.359375 15.453125 292.339844 16.582031 293.265625 C 17.710938 294.191406 18.882812 295.058594 20.09375 295.871094 C 21.308594 296.683594 22.558594 297.433594 23.84375 298.121094 C 25.132812 298.808594 26.449219 299.433594 27.796875 299.992188 C 29.144531 300.550781 30.515625 301.042969 31.914062 301.46875 C 33.308594 301.894531 34.722656 302.25 36.15625 302.535156 C 37.585938 302.820312 39.027344 303.035156 40.480469 303.179688 C 41.933594 303.324219 43.390625 303.398438 44.847656 303.398438 L 330.152344 303.398438 C 331.609375 303.398438 333.066406 303.324219 334.519531 303.179688 C 335.972656 303.035156 337.414062 302.820312 338.84375 302.535156 C 340.277344 302.25 341.691406 301.894531 343.085938 301.46875 C 344.484375 301.042969 345.855469 300.554688 347.203125 299.992188 C 348.550781 299.433594 349.871094 298.808594 351.15625 298.121094 C 352.441406 297.433594 353.695312 296.683594 354.90625 295.871094 C 356.121094 295.0625 357.289062 294.191406 358.417969 293.265625 C 359.546875 292.339844 360.628906 291.359375 361.660156 290.328125 C 362.691406 289.296875 363.671875 288.21875 364.597656 287.089844 C 365.523438 285.960938 366.390625 284.789062 367.203125 283.578125 C 368.015625 282.363281 368.765625 281.113281 369.453125 279.824219 C 370.140625 278.539062 370.765625 277.222656 371.324219 275.875 C 371.882812 274.523438 372.375 273.152344 372.800781 271.757812 C 373.222656 270.359375 373.578125 268.945312 373.867188 267.515625 C 374.152344 266.082031 374.367188 264.640625 374.511719 263.1875 C 374.65625 261.738281 374.726562 260.28125 374.730469 258.820312 L 374.730469 116.167969 C 374.726562 114.710938 374.65625 113.253906 374.511719 111.800781 C 374.367188 110.347656 374.152344 108.90625 373.867188 107.476562 C 373.578125 106.042969 373.222656 104.628906 372.800781 103.234375 C 372.375 101.835938 371.882812 100.464844 371.324219 99.117188 C 370.765625 97.769531 370.140625 96.453125 369.453125 95.164062 C 368.765625 93.878906 368.015625 92.628906 367.203125 91.414062 C 366.390625 90.199219 365.523438 89.03125 364.597656 87.902344 C 363.671875 86.773438 362.691406 85.695312 361.660156 84.660156 C 360.628906 83.628906 359.546875 82.648438 358.417969 81.722656 C 357.292969 80.796875 356.121094 79.929688 354.90625 79.117188 C 353.695312 78.308594 352.441406 77.558594 351.15625 76.867188 C 349.871094 76.179688 348.550781 75.554688 347.203125 74.996094 C 345.855469 74.4375 344.484375 73.945312 343.085938 73.519531 C 341.691406 73.097656 340.277344 72.742188 338.84375 72.457031 C 337.414062 72.167969 335.972656 71.953125 334.519531 71.808594 C 333.066406 71.664062 331.609375 71.59375 330.152344 71.589844 Z M 178.585938 285.566406 L 44.847656 285.566406 C 43.972656 285.566406 43.097656 285.523438 42.226562 285.4375 C 41.355469 285.351562 40.492188 285.222656 39.632812 285.050781 C 38.773438 284.878906 37.925781 284.664062 37.085938 284.410156 C 36.25 284.15625 35.425781 283.859375 34.617188 283.523438 C 33.808594 283.1875 33.019531 282.8125 32.246094 282.402344 C 31.472656 281.988281 30.722656 281.539062 29.996094 281.050781 C 29.265625 280.566406 28.566406 280.042969 27.886719 279.488281 C 27.210938 278.933594 26.5625 278.34375 25.945312 277.726562 C 25.324219 277.105469 24.738281 276.457031 24.183594 275.78125 C 23.625 275.105469 23.105469 274.402344 22.617188 273.675781 C 22.132812 272.945312 21.679688 272.195312 21.269531 271.421875 C 20.855469 270.652344 20.480469 269.859375 20.144531 269.050781 C 19.808594 268.242188 19.515625 267.417969 19.257812 266.582031 C 19.003906 265.742188 18.792969 264.894531 18.621094 264.035156 C 18.449219 263.179688 18.320312 262.3125 18.234375 261.441406 C 18.144531 260.570312 18.101562 259.695312 18.101562 258.820312 L 18.101562 116.167969 C 18.101562 115.292969 18.144531 114.421875 18.234375 113.546875 C 18.320312 112.675781 18.449219 111.8125 18.621094 110.953125 C 18.792969 110.09375 19.003906 109.246094 19.257812 108.410156 C 19.515625 107.570312 19.808594 106.746094 20.144531 105.9375 C 20.480469 105.128906 20.855469 104.339844 21.269531 103.566406 C 21.679688 102.792969 22.132812 102.042969 22.617188 101.316406 C 23.105469 100.589844 23.625 99.886719 24.183594 99.210938 C 24.738281 98.53125 25.324219 97.882812 25.945312 97.265625 C 26.5625 96.644531 27.210938 96.058594 27.886719 95.503906 C 28.566406 94.945312 29.265625 94.425781 29.996094 93.9375 C 30.722656 93.453125 31.472656 93.003906 32.246094 92.589844 C 33.019531 92.175781 33.808594 91.800781 34.617188 91.464844 C 35.425781 91.128906 36.25 90.835938 37.085938 90.582031 C 37.925781 90.324219 38.773438 90.113281 39.632812 89.941406 C 40.492188 89.769531 41.355469 89.640625 42.226562 89.554688 C 43.097656 89.46875 43.972656 89.421875 44.847656 89.421875 L 178.585938 89.421875 Z M 356.898438 258.820312 C 356.898438 259.695312 356.855469 260.570312 356.765625 261.441406 C 356.679688 262.3125 356.550781 263.179688 356.378906 264.035156 C 356.207031 264.894531 355.996094 265.742188 355.742188 266.582031 C 355.484375 267.417969 355.191406 268.242188 354.855469 269.050781 C 354.519531 269.859375 354.144531 270.652344 353.730469 271.421875 C 353.320312 272.195312 352.867188 272.945312 352.382812 273.675781 C 351.894531 274.402344 351.375 275.105469 350.816406 275.78125 C 350.261719 276.457031 349.675781 277.105469 349.054688 277.726562 C 348.4375 278.34375 347.789062 278.933594 347.113281 279.488281 C 346.433594 280.042969 345.734375 280.566406 345.003906 281.050781 C 344.277344 281.539062 343.527344 281.988281 342.753906 282.402344 C 341.980469 282.8125 341.191406 283.1875 340.382812 283.523438 C 339.574219 283.859375 338.75 284.15625 337.914062 284.410156 C 337.074219 284.664062 336.226562 284.878906 335.367188 285.050781 C 334.507812 285.222656 333.644531 285.351562 332.773438 285.4375 C 331.902344 285.523438 331.027344 285.566406 330.152344 285.566406 L 196.414062 285.566406 L 196.414062 89.421875 L 330.152344 89.421875 C 331.027344 89.421875 331.902344 89.46875 332.773438 89.554688 C 333.644531 89.640625 334.507812 89.769531 335.367188 89.941406 C 336.226562 90.113281 337.074219 90.324219 337.914062 90.582031 C 338.75 90.835938 339.574219 91.128906 340.382812 91.464844 C 341.191406 91.800781 341.980469 92.175781 342.753906 92.589844 C 343.527344 93.003906 344.277344 93.453125 345.003906 93.9375 C 345.734375 94.425781 346.433594 94.945312 347.113281 95.503906 C 347.789062 96.058594 348.4375 96.644531 349.054688 97.265625 C 349.675781 97.882812 350.261719 98.53125 350.816406 99.210938 C 351.375 99.886719 351.894531 100.589844 352.382812 101.316406 C 352.867188 102.042969 353.320312 102.792969 353.730469 103.566406 C 354.144531 104.339844 354.519531 105.128906 354.855469 105.9375 C 355.191406 106.746094 355.484375 107.570312 355.742188 108.410156 C 355.996094 109.246094 356.207031 110.09375 356.378906 110.953125 C 356.550781 111.8125 356.679688 112.675781 356.765625 113.546875 C 356.855469 114.421875 356.898438 115.292969 356.898438 116.167969 Z M 59.859375 249.445312 C 60.414062 249.632812 60.980469 249.761719 61.5625 249.835938 C 62.144531 249.914062 62.726562 249.929688 63.3125 249.890625 C 63.894531 249.847656 64.46875 249.753906 65.035156 249.597656 C 65.601562 249.445312 66.144531 249.234375 66.667969 248.972656 C 67.195312 248.710938 67.6875 248.402344 68.148438 248.042969 C 68.613281 247.683594 69.035156 247.28125 69.417969 246.839844 C 69.800781 246.394531 70.136719 245.917969 70.425781 245.410156 C 70.714844 244.898438 70.949219 244.367188 71.132812 243.808594 L 80.992188 214.242188 L 115.695312 214.242188 L 125.550781 243.808594 C 125.734375 244.367188 125.972656 244.902344 126.261719 245.410156 C 126.550781 245.921875 126.886719 246.398438 127.269531 246.84375 C 127.652344 247.285156 128.074219 247.6875 128.539062 248.050781 C 129 248.410156 129.492188 248.722656 130.019531 248.984375 C 130.542969 249.246094 131.085938 249.457031 131.652344 249.613281 C 132.21875 249.769531 132.792969 249.867188 133.378906 249.910156 C 133.964844 249.949219 134.546875 249.933594 135.128906 249.863281 C 135.710938 249.789062 136.28125 249.660156 136.835938 249.472656 C 137.394531 249.289062 137.925781 249.050781 138.433594 248.757812 C 138.945312 248.46875 139.421875 248.128906 139.863281 247.746094 C 140.304688 247.359375 140.707031 246.9375 141.066406 246.472656 C 141.425781 246.007812 141.734375 245.511719 141.996094 244.988281 C 142.257812 244.464844 142.464844 243.917969 142.617188 243.351562 C 142.769531 242.785156 142.867188 242.210938 142.90625 241.625 C 142.949219 241.039062 142.929688 240.457031 142.855469 239.875 C 142.777344 239.292969 142.648438 238.722656 142.460938 238.167969 L 106.796875 131.179688 C 106.429688 130.367188 105.957031 129.621094 105.371094 128.945312 C 104.789062 128.269531 104.125 127.6875 103.375 127.203125 C 102.625 126.71875 101.820312 126.351562 100.964844 126.097656 C 100.109375 125.847656 99.234375 125.71875 98.34375 125.71875 C 97.449219 125.71875 96.574219 125.847656 95.71875 126.097656 C 94.863281 126.351562 94.0625 126.71875 93.3125 127.203125 C 92.5625 127.6875 91.894531 128.269531 91.3125 128.945312 C 90.730469 129.621094 90.253906 130.367188 89.886719 131.179688 L 54.226562 238.167969 C 54.039062 238.722656 53.910156 239.292969 53.835938 239.871094 C 53.761719 240.453125 53.746094 241.035156 53.789062 241.617188 C 53.828125 242.203125 53.925781 242.777344 54.082031 243.339844 C 54.234375 243.90625 54.445312 244.449219 54.707031 244.972656 C 54.96875 245.496094 55.277344 245.988281 55.636719 246.453125 C 55.996094 246.914062 56.394531 247.339844 56.835938 247.722656 C 57.28125 248.105469 57.753906 248.441406 58.261719 248.730469 C 58.773438 249.019531 59.304688 249.257812 59.859375 249.445312 Z M 98.34375 162.191406 L 109.75 196.410156 L 86.9375 196.410156 Z M 312.320312 178.578125 L 286.066406 178.578125 C 286.550781 182.058594 287.308594 185.480469 288.347656 188.835938 C 289.386719 192.195312 290.6875 195.445312 292.253906 198.59375 C 293.820312 201.738281 295.628906 204.738281 297.679688 207.59375 C 299.730469 210.445312 302 213.113281 304.484375 215.601562 C 309.152344 221.453125 314.324219 227.929688 319.738281 236.042969 C 320.070312 236.53125 320.351562 237.046875 320.582031 237.589844 C 320.8125 238.132812 320.984375 238.691406 321.105469 239.269531 C 321.222656 239.84375 321.285156 240.429688 321.285156 241.019531 C 321.289062 241.605469 321.234375 242.191406 321.121094 242.769531 C 321.011719 243.347656 320.839844 243.910156 320.617188 244.453125 C 320.394531 245 320.117188 245.515625 319.792969 246.007812 C 319.464844 246.496094 319.09375 246.953125 318.675781 247.367188 C 318.261719 247.785156 317.808594 248.15625 317.316406 248.484375 C 316.828125 248.8125 316.308594 249.085938 315.765625 249.308594 C 315.21875 249.535156 314.65625 249.703125 314.078125 249.816406 C 313.5 249.929688 312.917969 249.984375 312.328125 249.980469 C 311.738281 249.976562 311.15625 249.917969 310.578125 249.800781 C 310 249.679688 309.441406 249.507812 308.898438 249.277344 C 308.355469 249.046875 307.839844 248.765625 307.351562 248.433594 C 306.867188 248.101562 306.417969 247.726562 306.003906 247.304688 C 305.589844 246.886719 305.222656 246.429688 304.902344 245.933594 C 299.816406 238.308594 294.941406 232.230469 290.554688 226.738281 C 285.386719 220.605469 280.753906 214.09375 276.65625 207.199219 C 272.5625 214.09375 267.929688 220.605469 262.761719 226.738281 C 258.371094 232.230469 253.496094 238.308594 248.414062 245.933594 C 248.089844 246.429688 247.722656 246.886719 247.3125 247.308594 C 246.898438 247.726562 246.449219 248.105469 245.960938 248.4375 C 245.476562 248.765625 244.960938 249.046875 244.417969 249.277344 C 243.875 249.507812 243.3125 249.679688 242.738281 249.800781 C 242.160156 249.917969 241.578125 249.980469 240.988281 249.980469 C 240.398438 249.984375 239.8125 249.929688 239.234375 249.816406 C 238.65625 249.703125 238.097656 249.535156 237.550781 249.3125 C 237.003906 249.085938 236.488281 248.8125 235.996094 248.484375 C 235.507812 248.15625 235.054688 247.785156 234.636719 247.371094 C 234.222656 246.953125 233.847656 246.5 233.523438 246.007812 C 233.195312 245.519531 232.921875 245 232.695312 244.453125 C 232.472656 243.910156 232.304688 243.347656 232.191406 242.769531 C 232.078125 242.191406 232.023438 241.605469 232.027344 241.019531 C 232.03125 240.429688 232.09375 239.84375 232.210938 239.269531 C 232.328125 238.691406 232.503906 238.132812 232.734375 237.589844 C 232.964844 237.046875 233.246094 236.53125 233.578125 236.042969 C 238.992188 227.929688 244.164062 221.453125 248.832031 215.601562 C 251.316406 213.117188 253.585938 210.445312 255.636719 207.59375 C 257.6875 204.738281 259.496094 201.738281 261.0625 198.59375 C 262.625 195.445312 263.929688 192.195312 264.964844 188.835938 C 266.003906 185.480469 266.765625 182.058594 267.25 178.578125 L 240.996094 178.578125 C 240.410156 178.578125 239.828125 178.523438 239.253906 178.40625 C 238.679688 178.292969 238.125 178.125 237.582031 177.902344 C 237.042969 177.675781 236.527344 177.402344 236.039062 177.078125 C 235.554688 176.75 235.105469 176.382812 234.691406 175.96875 C 234.277344 175.554688 233.90625 175.105469 233.582031 174.617188 C 233.253906 174.128906 232.980469 173.617188 232.757812 173.074219 C 232.53125 172.535156 232.363281 171.976562 232.25 171.402344 C 232.136719 170.828125 232.078125 170.25 232.078125 169.664062 C 232.078125 169.078125 232.136719 168.5 232.25 167.925781 C 232.363281 167.351562 232.53125 166.792969 232.757812 166.25 C 232.980469 165.710938 233.253906 165.195312 233.582031 164.710938 C 233.90625 164.222656 234.277344 163.773438 234.691406 163.359375 C 235.105469 162.945312 235.554688 162.574219 236.039062 162.25 C 236.527344 161.925781 237.042969 161.652344 237.582031 161.425781 C 238.125 161.203125 238.679688 161.035156 239.253906 160.917969 C 239.828125 160.804688 240.410156 160.746094 240.996094 160.746094 L 267.742188 160.746094 L 267.742188 134 C 267.742188 133.414062 267.796875 132.835938 267.914062 132.261719 C 268.027344 131.6875 268.195312 131.128906 268.421875 130.589844 C 268.644531 130.046875 268.917969 129.535156 269.242188 129.046875 C 269.570312 128.5625 269.9375 128.109375 270.351562 127.695312 C 270.765625 127.28125 271.21875 126.914062 271.703125 126.585938 C 272.191406 126.261719 272.703125 125.988281 273.246094 125.765625 C 273.785156 125.539062 274.34375 125.371094 274.917969 125.257812 C 275.492188 125.140625 276.070312 125.085938 276.65625 125.085938 C 277.242188 125.085938 277.824219 125.140625 278.398438 125.257812 C 278.96875 125.371094 279.527344 125.539062 280.070312 125.765625 C 280.609375 125.988281 281.125 126.261719 281.609375 126.585938 C 282.097656 126.914062 282.546875 127.28125 282.960938 127.695312 C 283.375 128.109375 283.746094 128.5625 284.070312 129.046875 C 284.394531 129.535156 284.671875 130.046875 284.894531 130.589844 C 285.117188 131.128906 285.289062 131.6875 285.402344 132.261719 C 285.515625 132.835938 285.574219 133.414062 285.574219 134 L 285.574219 160.746094 L 312.320312 160.746094 C 312.90625 160.746094 313.484375 160.804688 314.058594 160.917969 C 314.632812 161.035156 315.191406 161.203125 315.730469 161.425781 C 316.273438 161.652344 316.785156 161.925781 317.273438 162.25 C 317.761719 162.574219 318.210938 162.945312 318.625 163.359375 C 319.039062 163.773438 319.40625 164.222656 319.734375 164.710938 C 320.058594 165.195312 320.332031 165.710938 320.558594 166.25 C 320.78125 166.792969 320.949219 167.351562 321.0625 167.925781 C 321.179688 168.5 321.234375 169.078125 321.234375 169.664062 C 321.234375 170.25 321.179688 170.828125 321.0625 171.402344 C 320.949219 171.976562 320.78125 172.535156 320.558594 173.074219 C 320.332031 173.617188 320.058594 174.128906 319.734375 174.617188 C 319.40625 175.105469 319.039062 175.554688 318.625 175.96875 C 318.210938 176.382812 317.761719 176.75 317.273438 177.078125 C 316.785156 177.402344 316.273438 177.675781 315.730469 177.902344 C 315.191406 178.125 314.632812 178.292969 314.058594 178.40625 C 313.484375 178.523438 312.90625 178.578125 312.320312 178.578125 Z M 312.320312 178.578125 " fill-opacity="1" fill-rule="nonzero"/></g></svg>