<svg xmlns="http://www.w3.org/2000/svg" xmlns:xlink="http://www.w3.org/1999/xlink" width="500" zoomAndPan="magnify" viewBox="0 0 375 374.999991" height="500" preserveAspectRatio="xMidYMid meet" version="1.0"><defs><clipPath id="3f7f49c153"><path d="M 0.136719 83.210938 L 374.863281 83.210938 L 374.863281 337.472656 L 0.136719 337.472656 Z M 0.136719 83.210938 " clip-rule="nonzero"/></clipPath><clipPath id="074eb4af74"><path d="M 47 30 L 154 30 L 154 185 L 47 185 Z M 47 30 " clip-rule="nonzero"/></clipPath></defs><path fill="#ffffff" d="M 245.773438 148.679688 L 246.542969 156.132812 C 249.007812 155.894531 251.558594 155.765625 254.132812 155.765625 C 256.253906 155.765625 258.441406 155.851562 260.632812 156.019531 L 261.226562 148.550781 C 258.839844 148.371094 256.453125 148.277344 254.132812 148.277344 C 251.304688 148.277344 248.496094 148.414062 245.773438 148.679688 " fill-opacity="1" fill-rule="nonzero"/><path fill="#ffffff" d="M 216.273438 157.953125 L 220.152344 164.417969 C 224.167969 162.121094 228.445312 160.257812 232.859375 158.878906 L 230.523438 151.746094 C 225.574219 153.289062 220.777344 155.378906 216.273438 157.953125 " fill-opacity="1" fill-rule="nonzero"/><path fill="#ffffff" d="M 113.734375 260.226562 C 118.792969 259.222656 123.773438 257.8125 128.535156 256.035156 L 125.789062 249.039062 C 121.421875 250.667969 116.851562 251.964844 112.203125 252.886719 L 113.734375 260.226562 " fill-opacity="1" fill-rule="nonzero"/><path fill="#ffffff" d="M 193.25 177.980469 L 199.28125 182.609375 C 202.296875 178.867188 205.527344 175.464844 208.886719 172.511719 L 203.746094 166.949219 C 200.066406 170.191406 196.535156 173.902344 193.25 177.980469 " fill-opacity="1" fill-rule="nonzero"/><path fill="#ffffff" d="M 83.851562 254.277344 L 83.171875 261.734375 C 86.597656 262.035156 90.027344 262.1875 93.367188 262.1875 C 95.078125 262.1875 96.796875 262.148438 98.480469 262.070312 L 98.117188 254.585938 C 96.554688 254.660156 94.953125 254.695312 93.367188 254.695312 C 90.253906 254.695312 87.054688 254.554688 83.851562 254.277344 " fill-opacity="1" fill-rule="nonzero"/><path fill="#ffffff" d="M 150.15625 235.117188 C 146.445312 238.085938 142.535156 240.757812 138.53125 243.050781 L 142.417969 249.511719 C 146.761719 247.019531 151.003906 244.128906 155.019531 240.914062 L 150.15625 235.117188 " fill-opacity="1" fill-rule="nonzero"/><path fill="#ffffff" d="M 169.601562 214.746094 C 166.714844 218.613281 163.65625 222.253906 160.515625 225.566406 L 166.148438 230.65625 C 169.492188 227.128906 172.742188 223.257812 175.804688 219.15625 L 169.601562 214.746094 " fill-opacity="1" fill-rule="nonzero"/><path fill="#ffffff" d="M 53.402344 255.65625 C 58.292969 257.210938 63.234375 258.503906 68.089844 259.507812 L 69.679688 252.179688 C 65.085938 251.230469 60.410156 250.003906 55.777344 248.53125 L 53.402344 255.65625 " fill-opacity="1" fill-rule="nonzero"/><path fill="#ffffff" d="M 301.945312 167.230469 C 306.210938 169.113281 310.578125 171.25 314.933594 173.574219 L 318.617188 167 C 314.09375 164.585938 309.550781 162.367188 305.109375 160.40625 L 301.945312 167.230469 " fill-opacity="1" fill-rule="nonzero"/><path fill="#ffffff" d="M 274.707031 158.117188 C 279.1875 159.097656 283.835938 160.398438 288.527344 161.984375 L 291.039062 154.90625 C 286.078125 153.230469 281.144531 151.851562 276.386719 150.808594 L 274.707031 158.117188 " fill-opacity="1" fill-rule="nonzero"/><g clip-path="url(#3f7f49c153)"><path fill="#ffffff" d="M 278.84375 230.871094 L 274.738281 231.128906 L 271.714844 233.917969 L 220.65625 281.019531 L 173.214844 138.273438 L 223.691406 95.210938 L 294.664062 97.867188 L 332.019531 174.753906 C 331.875 174.660156 331.726562 174.570312 331.585938 174.480469 L 327.476562 180.804688 C 331.179688 183.097656 334.871094 185.535156 338.480469 188.050781 L 356.882812 225.925781 Z M 302.050781 86.539062 L 219.605469 83.457031 L 164.511719 130.457031 L 150.898438 128.0625 C 149.121094 131.523438 147.175781 135.109375 145.066406 138.804688 L 162.179688 141.820312 L 180.664062 197.4375 C 179.625 199.328125 178.558594 201.179688 177.484375 202.972656 L 183.683594 206.523438 L 209.871094 285.335938 L 130.625 281.714844 L 127.203125 281.554688 L 124.242188 283.289062 L 61.324219 320.097656 L 39.472656 249.804688 L 42.296875 243.519531 C 40.21875 242.628906 38.355469 241.777344 36.738281 241 L 13.820312 167.269531 L 56.691406 139.582031 C 54.683594 136.085938 52.816406 132.6875 51.101562 129.394531 L 0.136719 162.308594 L 54.585938 337.472656 L 130.097656 293.292969 L 219.988281 297.40625 L 279.578125 242.441406 L 374.863281 236.402344 L 302.050781 86.539062 " fill-opacity="1" fill-rule="nonzero"/></g><g clip-path="url(#074eb4af74)"><path fill="#ffffff" d="M 71.632812 79.925781 C 71.632812 63.898438 84.628906 50.902344 100.65625 50.902344 C 116.6875 50.902344 129.679688 63.898438 129.679688 79.925781 C 129.679688 95.953125 116.6875 108.949219 100.65625 108.949219 C 84.628906 108.949219 71.632812 95.953125 71.632812 79.925781 Z M 153.917969 83.257812 C 153.917969 53.84375 130.074219 29.996094 100.65625 29.996094 C 71.242188 29.996094 47.394531 53.84375 47.394531 83.257812 C 47.394531 117.617188 100.65625 184.78125 100.65625 184.78125 C 100.65625 184.78125 153.917969 117.617188 153.917969 83.257812 " fill-opacity="1" fill-rule="nonzero"/></g></svg>