<svg xmlns="http://www.w3.org/2000/svg" xmlns:xlink="http://www.w3.org/1999/xlink" width="500" zoomAndPan="magnify" viewBox="0 0 375 374.999991" height="500" preserveAspectRatio="xMidYMid meet" version="1.0"><defs><clipPath id="1c1d172921"><path d="M 3 14.53125 L 374 14.53125 L 374 360.28125 L 3 360.28125 Z M 3 14.53125 " clip-rule="nonzero"/></clipPath></defs><path fill="#ffffff" d="M 13.101562 210.75 C 23.019531 215.6875 34.585938 212.863281 41.09375 204.476562 C 40.894531 217.214844 47.796875 229.136719 58.929688 235.40625 L 34.152344 336.164062 L 46.699219 336.164062 L 71.984375 233.449219 C 72.730469 230.390625 71.082031 227.292969 68.144531 226.273438 C 57.441406 222.3125 51.285156 210.945312 53.832031 199.730469 L 60.96875 168.605469 C 61.597656 165.976562 60.417969 163.3125 58.183594 161.976562 C 55.871094 160.644531 53.011719 160.957031 51.011719 162.644531 C 49.363281 164.171875 47.953125 165.9375 46.738281 168.171875 L 32.347656 195.617188 C 29.722656 200.476562 23.644531 202.359375 18.667969 199.886719 C 16.238281 198.59375 14.472656 196.554688 13.6875 193.96875 C 12.902344 191.421875 13.140625 188.597656 14.355469 186.246094 L 28.78125 158.722656 C 32.308594 152.097656 37.601562 146.492188 44.109375 142.570312 C 76.492188 123.441406 80.414062 123.714844 83.746094 123.871094 L 106.09375 125.320312 C 111.699219 125.636719 115.972656 127.398438 138.160156 159.898438 C 139.691406 161.976562 142.003906 163.3125 144.238281 163.546875 L 171.5625 167.625 C 177.089844 168.523438 180.933594 173.699219 180.070312 179.265625 C 179.640625 181.933594 178.308594 184.246094 176.109375 185.773438 C 173.914062 187.421875 171.289062 188.089844 168.625 187.65625 L 141.179688 183.578125 C 133.613281 182.441406 126.675781 178.285156 122.167969 172.328125 C 120.714844 170.484375 118.324219 169.582031 116.089844 170.09375 C 113.777344 170.5625 111.933594 172.328125 111.386719 174.601562 L 104.015625 204.554688 C 103.230469 207.769531 105.152344 211.0625 108.40625 211.925781 L 121.695312 215.453125 C 133.027344 218.511719 141.414062 227.996094 143.140625 239.5625 L 151.960938 305.386719 L 164.273438 305.386719 L 155.214844 237.917969 C 152.824219 221.488281 140.984375 208.003906 124.910156 203.691406 L 117.34375 201.691406 L 120.675781 187.8125 C 126.164062 191.890625 132.59375 194.558594 139.375 195.617188 L 166.898438 199.769531 C 172.738281 200.632812 178.582031 199.144531 183.324219 195.695312 C 188.148438 192.203125 191.242188 187.03125 192.144531 181.148438 C 194.027344 169.035156 185.636719 157.585938 173.40625 155.707031 L 147.296875 151.746094 C 133.457031 131.632812 125.695312 121.988281 119.148438 117.363281 C 120.441406 116.539062 121.773438 115.757812 122.988281 114.777344 C 131.066406 108.269531 136.164062 99.015625 137.261719 88.667969 C 139.574219 67.378906 124.125 48.128906 102.800781 45.816406 C 81.511719 43.542969 62.261719 59.027344 59.949219 80.277344 C 58.539062 93.332031 63.792969 105.601562 72.964844 113.679688 C 66.457031 116.070312 56.304688 121.285156 37.839844 132.222656 C 29.371094 137.28125 22.507812 144.453125 17.921875 153.117188 L 3.417969 180.71875 C 0.75 186.011719 0.203125 191.96875 1.964844 197.691406 C 3.847656 203.339844 7.730469 207.964844 13.101562 210.75 Z M 72.0625 81.609375 C 73.554688 67.964844 85.195312 57.8125 98.683594 57.8125 C 99.625 57.8125 100.566406 57.851562 101.503906 57.96875 C 116.128906 59.578125 126.753906 72.75 125.144531 87.410156 C 124.363281 94.507812 120.871094 100.859375 115.34375 105.328125 C 109.777344 109.796875 102.917969 111.835938 95.742188 111.050781 C 81.082031 109.445312 70.496094 96.234375 72.0625 81.609375 Z M 72.0625 81.609375 " fill-opacity="1" fill-rule="nonzero"/><path fill="#ffffff" d="M 114.640625 238.898438 L 102.839844 235.683594 C 101.269531 235.25 99.625 235.484375 98.132812 236.347656 C 96.722656 237.132812 95.703125 238.542969 95.351562 240.113281 L 71.789062 336.203125 L 84.253906 336.203125 L 105.699219 249.089844 L 107.582031 249.636719 L 115.1875 305.542969 C 115.421875 305.464844 115.738281 305.464844 116.050781 305.464844 L 127.496094 305.464844 L 119.109375 243.953125 C 118.792969 241.484375 117.03125 239.5625 114.640625 238.898438 Z M 114.640625 238.898438 " fill-opacity="1" fill-rule="nonzero"/><g clip-path="url(#1c1d172921)"><path fill="#ffffff" d="M 349.039062 70.28125 L 372.445312 38.640625 C 374.796875 35.464844 372.523438 30.996094 368.605469 30.996094 L 297.996094 30.996094 L 297.996094 20.609375 C 297.996094 17.238281 295.253906 14.53125 291.921875 14.53125 C 288.546875 14.53125 285.84375 17.277344 285.84375 20.609375 L 285.84375 256.105469 L 256.636719 256.105469 C 253.265625 256.105469 250.558594 258.851562 250.558594 262.183594 L 250.558594 286.84375 L 186.34375 286.84375 C 182.972656 286.84375 180.265625 289.585938 180.265625 292.921875 L 180.265625 317.578125 L 116.050781 317.578125 C 112.679688 317.578125 109.972656 320.324219 109.972656 323.65625 L 109.972656 348.316406 L 9.847656 348.316406 C 6.476562 348.316406 3.769531 351.058594 3.769531 354.390625 C 3.769531 357.722656 6.515625 360.46875 9.847656 360.46875 L 116.089844 360.46875 C 119.460938 360.46875 122.167969 357.722656 122.167969 354.390625 L 122.167969 329.734375 L 186.34375 329.734375 C 189.714844 329.734375 192.421875 326.988281 192.421875 323.65625 L 192.421875 298.996094 L 256.597656 298.996094 C 259.96875 298.996094 262.675781 296.253906 262.675781 292.921875 L 262.675781 268.300781 L 326.851562 268.300781 C 330.222656 268.300781 332.929688 265.554688 332.929688 262.222656 C 332.929688 258.890625 330.183594 256.144531 326.851562 256.144531 L 297.957031 256.144531 L 297.957031 109.5625 L 368.5625 109.5625 C 372.484375 109.5625 374.757812 105.09375 372.40625 101.917969 Z M 297.996094 97.410156 L 297.996094 43.148438 L 353.980469 43.148438 L 336.023438 67.417969 C 334.769531 69.101562 334.769531 71.417969 336.023438 73.101562 L 353.980469 97.371094 L 297.996094 97.371094 Z M 297.996094 97.410156 " fill-opacity="1" fill-rule="nonzero"/></g></svg>