<svg xmlns="http://www.w3.org/2000/svg" xmlns:xlink="http://www.w3.org/1999/xlink" width="500" zoomAndPan="magnify" viewBox="0 0 375 374.999991" height="500" preserveAspectRatio="xMidYMid meet" version="1.0"><defs><clipPath id="ff1ae04ad9"><path d="M 290 218 L 371.25 218 L 371.25 375 L 290 375 Z M 290 218 " clip-rule="nonzero"/></clipPath></defs><path fill="#ffffff" d="M 330.871094 374.460938 L 40.425781 374.460938 C 39.101562 374.457031 37.785156 374.390625 36.464844 374.261719 C 35.148438 374.128906 33.84375 373.9375 32.546875 373.675781 C 31.25 373.417969 29.96875 373.097656 28.703125 372.710938 C 27.4375 372.328125 26.191406 371.882812 24.96875 371.375 C 23.746094 370.867188 22.554688 370.300781 21.386719 369.679688 C 20.21875 369.054688 19.085938 368.375 17.988281 367.640625 C 16.886719 366.902344 15.828125 366.117188 14.804688 365.277344 C 13.78125 364.4375 12.800781 363.550781 11.867188 362.617188 C 10.929688 361.679688 10.042969 360.699219 9.203125 359.679688 C 8.363281 358.65625 7.578125 357.59375 6.84375 356.496094 C 6.105469 355.394531 5.425781 354.261719 4.804688 353.09375 C 4.179688 351.929688 3.613281 350.734375 3.109375 349.511719 C 2.601562 348.289062 2.15625 347.046875 1.769531 345.78125 C 1.386719 344.515625 1.0625 343.234375 0.804688 341.9375 C 0.546875 340.636719 0.351562 339.332031 0.21875 338.015625 C 0.0898438 336.699219 0.0234375 335.378906 0.0234375 334.054688 L 0.0234375 4.734375 C 0.0234375 4.355469 0.078125 3.988281 0.1875 3.628906 C 0.296875 3.265625 0.457031 2.929688 0.664062 2.617188 C 0.875 2.304688 1.125 2.027344 1.417969 1.789062 C 1.707031 1.550781 2.027344 1.355469 2.375 1.214844 C 2.722656 1.070312 3.085938 0.976562 3.460938 0.941406 C 3.835938 0.90625 4.207031 0.921875 4.578125 0.996094 C 4.949219 1.070312 5.296875 1.195312 5.632812 1.371094 C 5.964844 1.550781 6.261719 1.773438 6.527344 2.039062 L 32.886719 28.367188 L 59.277344 2.027344 C 60.023438 1.289062 60.917969 0.921875 61.96875 0.921875 C 63.019531 0.921875 63.917969 1.292969 64.664062 2.039062 L 90.9375 28.367188 L 117.328125 2.027344 C 117.6875 1.671875 118.097656 1.394531 118.566406 1.203125 C 119.03125 1.011719 119.515625 0.914062 120.023438 0.914062 C 120.527344 0.914062 121.011719 1.011719 121.480469 1.203125 C 121.945312 1.394531 122.355469 1.671875 122.714844 2.027344 L 149.035156 28.367188 L 175.425781 2.027344 C 175.78125 1.671875 176.195312 1.394531 176.660156 1.203125 C 177.128906 1.011719 177.613281 0.914062 178.117188 0.914062 C 178.621094 0.914062 179.109375 1.011719 179.574219 1.203125 C 180.042969 1.394531 180.453125 1.671875 180.8125 2.027344 L 207.152344 28.367188 L 233.488281 2.03125 C 233.851562 1.6875 234.265625 1.421875 234.730469 1.238281 C 235.199219 1.050781 235.679688 0.957031 236.183594 0.957031 C 236.683594 0.957031 237.167969 1.050781 237.632812 1.238281 C 238.097656 1.421875 238.511719 1.6875 238.875 2.03125 L 265.210938 28.367188 L 291.585938 2.035156 C 291.855469 1.765625 292.152344 1.542969 292.488281 1.363281 C 292.820312 1.1875 293.171875 1.058594 293.542969 0.984375 C 293.910156 0.910156 294.285156 0.894531 294.660156 0.929688 C 295.039062 0.964844 295.398438 1.058594 295.75 1.203125 C 296.097656 1.347656 296.417969 1.539062 296.710938 1.777344 C 297.003906 2.019531 297.253906 2.296875 297.460938 2.609375 C 297.671875 2.925781 297.832031 3.261719 297.941406 3.625 C 298.046875 3.984375 298.101562 4.355469 298.101562 4.734375 L 298.101562 334.054688 C 298.101562 335.128906 298.15625 336.199219 298.261719 337.269531 C 298.367188 338.335938 298.523438 339.398438 298.734375 340.449219 C 298.945312 341.503906 299.207031 342.542969 299.519531 343.570312 C 299.832031 344.597656 300.191406 345.605469 300.601562 346.597656 C 301.015625 347.589844 301.472656 348.558594 301.980469 349.503906 C 302.484375 350.449219 303.035156 351.371094 303.632812 352.261719 C 304.230469 353.15625 304.867188 354.015625 305.550781 354.84375 C 306.230469 355.675781 306.949219 356.46875 307.710938 357.226562 C 308.46875 357.988281 309.261719 358.707031 310.09375 359.386719 C 310.921875 360.070312 311.78125 360.707031 312.675781 361.304688 C 313.566406 361.902344 314.488281 362.453125 315.433594 362.957031 C 316.378906 363.464844 317.347656 363.921875 318.339844 364.335938 C 319.332031 364.746094 320.339844 365.105469 321.367188 365.417969 C 322.394531 365.730469 323.433594 365.992188 324.488281 366.203125 C 325.539062 366.414062 326.601562 366.570312 327.667969 366.675781 C 328.738281 366.78125 329.808594 366.835938 330.882812 366.835938 C 331.386719 366.835938 331.871094 366.933594 332.339844 367.125 C 332.808594 367.320312 333.21875 367.59375 333.578125 367.953125 C 333.933594 368.308594 334.210938 368.722656 334.402344 369.1875 C 334.597656 369.65625 334.691406 370.140625 334.691406 370.648438 C 334.691406 371.152344 334.597656 371.640625 334.402344 372.105469 C 334.210938 372.574219 333.933594 372.984375 333.578125 373.34375 C 333.21875 373.699219 332.808594 373.976562 332.339844 374.167969 C 331.871094 374.363281 331.386719 374.460938 330.882812 374.460938 Z M 7.667969 13.9375 L 7.667969 334.054688 C 7.667969 335.128906 7.722656 336.199219 7.828125 337.269531 C 7.933594 338.335938 8.09375 339.398438 8.300781 340.449219 C 8.511719 341.503906 8.773438 342.542969 9.085938 343.570312 C 9.398438 344.597656 9.757812 345.605469 10.171875 346.597656 C 10.582031 347.589844 11.039062 348.558594 11.546875 349.503906 C 12.050781 350.449219 12.605469 351.371094 13.199219 352.261719 C 13.796875 353.15625 14.4375 354.015625 15.117188 354.84375 C 15.796875 355.675781 16.519531 356.46875 17.277344 357.226562 C 18.035156 357.988281 18.828125 358.707031 19.660156 359.386719 C 20.488281 360.070312 21.351562 360.707031 22.242188 361.304688 C 23.136719 361.902344 24.054688 362.453125 25 362.957031 C 25.949219 363.464844 26.917969 363.921875 27.90625 364.335938 C 28.898438 364.746094 29.910156 365.105469 30.9375 365.417969 C 31.960938 365.730469 33.003906 365.992188 34.054688 366.203125 C 35.109375 366.414062 36.167969 366.570312 37.238281 366.675781 C 38.304688 366.78125 39.375 366.835938 40.449219 366.835938 L 307.28125 366.835938 C 305.984375 365.902344 304.75 364.898438 303.574219 363.820312 C 302.394531 362.742188 301.289062 361.597656 300.246094 360.390625 C 299.207031 359.179688 298.242188 357.914062 297.351562 356.589844 C 296.460938 355.265625 295.652344 353.894531 294.921875 352.472656 C 294.195312 351.054688 293.554688 349.597656 293 348.101562 C 292.445312 346.605469 291.980469 345.082031 291.605469 343.53125 C 291.230469 341.976562 290.949219 340.410156 290.761719 338.824219 C 290.574219 337.242188 290.476562 335.652344 290.476562 334.054688 L 290.476562 13.921875 L 267.898438 36.457031 C 267.542969 36.8125 267.128906 37.089844 266.664062 37.28125 C 266.195312 37.476562 265.710938 37.570312 265.207031 37.570312 C 264.699219 37.570312 264.214844 37.476562 263.75 37.28125 C 263.28125 37.089844 262.871094 36.8125 262.511719 36.457031 L 236.183594 10.125 L 209.847656 36.457031 C 209.484375 36.800781 209.070312 37.066406 208.601562 37.253906 C 208.136719 37.4375 207.652344 37.53125 207.152344 37.53125 C 206.652344 37.53125 206.167969 37.4375 205.703125 37.253906 C 205.238281 37.066406 204.820312 36.800781 204.457031 36.457031 L 178.125 10.125 L 151.730469 36.460938 C 151.375 36.816406 150.964844 37.09375 150.496094 37.285156 C 150.03125 37.480469 149.542969 37.574219 149.039062 37.574219 C 148.535156 37.574219 148.046875 37.480469 147.582031 37.285156 C 147.117188 37.09375 146.703125 36.816406 146.347656 36.460938 L 120.015625 10.125 L 93.625 36.460938 C 92.878906 37.203125 91.984375 37.574219 90.933594 37.574219 C 89.878906 37.574219 88.980469 37.199219 88.238281 36.453125 L 61.964844 10.125 L 35.574219 36.460938 C 35.214844 36.816406 34.804688 37.09375 34.339844 37.285156 C 33.871094 37.480469 33.386719 37.574219 32.878906 37.574219 C 32.375 37.574219 31.890625 37.480469 31.421875 37.285156 C 30.957031 37.09375 30.546875 36.816406 30.1875 36.460938 Z M 7.667969 13.9375 " fill-opacity="1" fill-rule="nonzero"/><g clip-path="url(#ff1ae04ad9)"><path fill="#ffffff" d="M 330.9375 374.460938 C 328.390625 374.445312 325.871094 374.1875 323.375 373.6875 C 320.878906 373.183594 318.453125 372.445312 316.101562 371.46875 C 313.746094 370.496094 311.511719 369.300781 309.390625 367.894531 C 307.269531 366.484375 305.304688 364.882812 303.496094 363.089844 C 301.449219 361.105469 299.617188 358.9375 298.003906 356.585938 C 296.386719 354.234375 295.023438 351.746094 293.90625 349.125 C 292.785156 346.5 291.941406 343.792969 291.363281 341 C 290.785156 338.207031 290.492188 335.382812 290.476562 332.53125 L 290.476562 222.03125 C 290.476562 221.527344 290.574219 221.042969 290.769531 220.574219 C 290.960938 220.109375 291.238281 219.695312 291.59375 219.339844 C 291.953125 218.980469 292.363281 218.707031 292.832031 218.511719 C 293.296875 218.316406 293.785156 218.222656 294.289062 218.222656 L 356.039062 218.222656 C 357.035156 218.222656 358.019531 218.320312 358.996094 218.515625 C 359.972656 218.710938 360.921875 219 361.839844 219.378906 C 362.761719 219.761719 363.632812 220.230469 364.460938 220.78125 C 365.289062 221.335938 366.054688 221.964844 366.761719 222.667969 C 367.464844 223.375 368.09375 224.140625 368.648438 224.96875 C 369.199219 225.796875 369.667969 226.667969 370.050781 227.589844 C 370.429688 228.507812 370.71875 229.457031 370.914062 230.433594 C 371.109375 231.410156 371.207031 232.394531 371.207031 233.390625 L 371.207031 334.054688 C 371.210938 335.351562 371.148438 336.644531 371.027344 337.9375 C 370.902344 339.226562 370.71875 340.511719 370.472656 341.78125 C 370.226562 343.054688 369.917969 344.3125 369.550781 345.558594 C 369.183594 346.800781 368.757812 348.023438 368.273438 349.226562 C 367.789062 350.429688 367.246094 351.605469 366.644531 352.753906 C 366.046875 353.90625 365.394531 355.023438 364.6875 356.109375 C 363.980469 357.199219 363.222656 358.25 362.417969 359.261719 C 361.609375 360.277344 360.753906 361.25 359.851562 362.183594 C 358.949219 363.113281 358.007812 364 357.019531 364.839844 C 356.03125 365.683594 355.007812 366.472656 353.945312 367.214844 C 352.878906 367.957031 351.785156 368.648438 350.65625 369.28125 C 349.523438 369.917969 348.367188 370.5 347.179688 371.023438 C 345.996094 371.550781 344.789062 372.015625 343.558594 372.425781 C 342.328125 372.832031 341.078125 373.179688 339.816406 373.46875 C 338.550781 373.757812 337.273438 373.984375 335.988281 374.148438 C 334.703125 374.316406 333.414062 374.417969 332.117188 374.460938 C 331.722656 374.460938 331.332031 374.460938 330.9375 374.460938 Z M 298.101562 225.84375 L 298.101562 332.53125 C 298.109375 334.871094 298.351562 337.1875 298.824219 339.480469 C 299.296875 341.773438 299.992188 343.996094 300.90625 346.152344 C 301.824219 348.304688 302.945312 350.347656 304.269531 352.277344 C 305.59375 354.207031 307.09375 355.988281 308.773438 357.621094 C 310.289062 359.128906 311.9375 360.472656 313.726562 361.644531 C 315.511719 362.820312 317.398438 363.804688 319.382812 364.597656 C 321.371094 365.390625 323.414062 365.972656 325.519531 366.351562 C 327.625 366.726562 329.746094 366.890625 331.882812 366.835938 C 332.933594 366.800781 333.980469 366.71875 335.023438 366.585938 C 336.066406 366.449219 337.101562 366.265625 338.125 366.035156 C 339.148438 365.800781 340.160156 365.519531 341.160156 365.1875 C 342.15625 364.855469 343.136719 364.476562 344.097656 364.050781 C 345.058594 363.625 345.996094 363.15625 346.914062 362.640625 C 347.828125 362.125 348.71875 361.566406 349.582031 360.964844 C 350.441406 360.363281 351.273438 359.71875 352.074219 359.039062 C 352.875 358.355469 353.640625 357.640625 354.371094 356.882812 C 355.101562 356.128906 355.792969 355.339844 356.449219 354.515625 C 357.105469 353.695312 357.71875 352.84375 358.292969 351.960938 C 358.863281 351.082031 359.394531 350.175781 359.878906 349.242188 C 360.363281 348.308594 360.804688 347.355469 361.199219 346.382812 C 361.59375 345.40625 361.9375 344.414062 362.238281 343.40625 C 362.535156 342.398438 362.785156 341.378906 362.984375 340.347656 C 363.183594 339.316406 363.332031 338.277344 363.433594 337.230469 C 363.53125 336.183594 363.582031 335.132812 363.582031 334.082031 L 363.582031 233.390625 C 363.582031 232.894531 363.53125 232.40625 363.433594 231.917969 C 363.335938 231.433594 363.195312 230.960938 363.003906 230.503906 C 362.816406 230.046875 362.582031 229.613281 362.308594 229.199219 C 362.03125 228.789062 361.71875 228.40625 361.367188 228.058594 C 361.019531 227.707031 360.636719 227.394531 360.226562 227.117188 C 359.8125 226.84375 359.378906 226.609375 358.921875 226.421875 C 358.464844 226.230469 357.992188 226.089844 357.507812 225.992188 C 357.019531 225.894531 356.53125 225.84375 356.035156 225.84375 Z M 298.101562 225.84375 " fill-opacity="1" fill-rule="nonzero"/></g><path fill="#ffffff" d="M 136.722656 173.703125 L 34.417969 173.703125 C 33.914062 173.703125 33.425781 173.605469 32.960938 173.410156 C 32.492188 173.21875 32.082031 172.941406 31.722656 172.585938 C 31.367188 172.226562 31.089844 171.816406 30.898438 171.347656 C 30.703125 170.882812 30.605469 170.394531 30.605469 169.890625 L 30.605469 67.625 C 30.605469 67.121094 30.703125 66.632812 30.898438 66.167969 C 31.089844 65.699219 31.367188 65.289062 31.722656 64.929688 C 32.082031 64.574219 32.492188 64.296875 32.960938 64.105469 C 33.425781 63.910156 33.914062 63.8125 34.417969 63.8125 L 136.722656 63.8125 C 137.226562 63.8125 137.714844 63.910156 138.179688 64.105469 C 138.648438 64.296875 139.058594 64.574219 139.417969 64.929688 C 139.773438 65.289062 140.050781 65.699219 140.242188 66.167969 C 140.4375 66.632812 140.535156 67.121094 140.535156 67.625 L 140.535156 169.890625 C 140.535156 170.394531 140.4375 170.882812 140.242188 171.347656 C 140.050781 171.816406 139.773438 172.226562 139.417969 172.585938 C 139.058594 172.941406 138.648438 173.21875 138.179688 173.410156 C 137.714844 173.605469 137.226562 173.703125 136.722656 173.703125 Z M 38.230469 166.078125 L 132.910156 166.078125 L 132.910156 71.4375 L 38.230469 71.4375 Z M 38.230469 166.078125 " fill-opacity="1" fill-rule="nonzero"/><path fill="#ffffff" d="M 271.386719 82.699219 L 163.230469 82.699219 C 162.726562 82.699219 162.238281 82.601562 161.773438 82.410156 C 161.304688 82.214844 160.894531 81.941406 160.535156 81.582031 C 160.179688 81.226562 159.902344 80.8125 159.710938 80.347656 C 159.515625 79.878906 159.421875 79.394531 159.421875 78.886719 C 159.421875 78.382812 159.515625 77.898438 159.710938 77.429688 C 159.902344 76.960938 160.179688 76.550781 160.535156 76.191406 C 160.894531 75.835938 161.304688 75.558594 161.773438 75.367188 C 162.238281 75.171875 162.726562 75.078125 163.230469 75.078125 L 271.386719 75.078125 C 271.890625 75.078125 272.378906 75.171875 272.84375 75.367188 C 273.3125 75.558594 273.722656 75.835938 274.082031 76.191406 C 274.4375 76.550781 274.714844 76.960938 274.90625 77.429688 C 275.101562 77.898438 275.199219 78.382812 275.199219 78.886719 C 275.199219 79.394531 275.101562 79.878906 274.90625 80.347656 C 274.714844 80.8125 274.4375 81.226562 274.082031 81.582031 C 273.722656 81.941406 273.3125 82.214844 272.84375 82.410156 C 272.378906 82.601562 271.890625 82.699219 271.386719 82.699219 Z M 271.386719 82.699219 " fill-opacity="1" fill-rule="nonzero"/><path fill="#ffffff" d="M 271.386719 109.277344 L 163.230469 109.277344 C 162.726562 109.277344 162.238281 109.179688 161.773438 108.988281 C 161.304688 108.792969 160.894531 108.519531 160.535156 108.160156 C 160.179688 107.804688 159.902344 107.390625 159.710938 106.925781 C 159.515625 106.457031 159.421875 105.972656 159.421875 105.464844 C 159.421875 104.960938 159.515625 104.476562 159.710938 104.007812 C 159.902344 103.542969 160.179688 103.128906 160.535156 102.773438 C 160.894531 102.414062 161.304688 102.140625 161.773438 101.945312 C 162.238281 101.75 162.726562 101.65625 163.230469 101.65625 L 271.386719 101.65625 C 271.890625 101.65625 272.378906 101.75 272.84375 101.945312 C 273.3125 102.136719 273.722656 102.414062 274.082031 102.773438 C 274.4375 103.128906 274.714844 103.542969 274.90625 104.007812 C 275.101562 104.476562 275.199219 104.960938 275.199219 105.464844 C 275.199219 105.972656 275.101562 106.457031 274.90625 106.925781 C 274.714844 107.390625 274.4375 107.804688 274.082031 108.160156 C 273.722656 108.519531 273.3125 108.792969 272.84375 108.988281 C 272.378906 109.179688 271.890625 109.277344 271.386719 109.277344 Z M 271.386719 109.277344 " fill-opacity="1" fill-rule="nonzero"/><path fill="#ffffff" d="M 271.386719 135.851562 L 163.230469 135.851562 C 162.726562 135.851562 162.238281 135.757812 161.773438 135.5625 C 161.304688 135.371094 160.894531 135.09375 160.535156 134.738281 C 160.179688 134.378906 159.902344 133.964844 159.710938 133.5 C 159.515625 133.03125 159.421875 132.546875 159.421875 132.042969 C 159.421875 131.535156 159.515625 131.050781 159.710938 130.582031 C 159.902344 130.117188 160.179688 129.703125 160.535156 129.347656 C 160.894531 128.988281 161.304688 128.714844 161.773438 128.519531 C 162.238281 128.328125 162.726562 128.230469 163.230469 128.230469 L 271.386719 128.230469 C 271.890625 128.230469 272.378906 128.328125 272.84375 128.519531 C 273.3125 128.714844 273.722656 128.988281 274.082031 129.347656 C 274.4375 129.703125 274.714844 130.117188 274.90625 130.582031 C 275.101562 131.050781 275.199219 131.535156 275.199219 132.042969 C 275.199219 132.546875 275.101562 133.03125 274.90625 133.5 C 274.714844 133.964844 274.4375 134.378906 274.082031 134.738281 C 273.722656 135.09375 273.3125 135.371094 272.84375 135.5625 C 272.378906 135.757812 271.890625 135.851562 271.386719 135.851562 Z M 271.386719 135.851562 " fill-opacity="1" fill-rule="nonzero"/><path fill="#ffffff" d="M 239.941406 162.4375 L 163.230469 162.4375 C 162.726562 162.4375 162.238281 162.34375 161.773438 162.148438 C 161.304688 161.957031 160.894531 161.679688 160.535156 161.324219 C 160.179688 160.964844 159.902344 160.550781 159.710938 160.085938 C 159.515625 159.617188 159.421875 159.132812 159.421875 158.628906 C 159.421875 158.121094 159.515625 157.636719 159.710938 157.167969 C 159.902344 156.703125 160.179688 156.289062 160.535156 155.933594 C 160.894531 155.574219 161.304688 155.300781 161.773438 155.105469 C 162.238281 154.914062 162.726562 154.816406 163.230469 154.816406 L 239.941406 154.816406 C 240.445312 154.816406 240.933594 154.914062 241.398438 155.105469 C 241.867188 155.300781 242.277344 155.574219 242.636719 155.933594 C 242.992188 156.289062 243.269531 156.703125 243.460938 157.167969 C 243.65625 157.636719 243.75 158.121094 243.75 158.628906 C 243.75 159.132812 243.65625 159.617188 243.460938 160.085938 C 243.269531 160.550781 242.992188 160.964844 242.636719 161.324219 C 242.277344 161.679688 241.867188 161.957031 241.398438 162.148438 C 240.933594 162.34375 240.445312 162.4375 239.941406 162.4375 Z M 239.941406 162.4375 " fill-opacity="1" fill-rule="nonzero"/><path fill="#ffffff" d="M 271.386719 203.253906 L 31.492188 203.253906 C 30.984375 203.253906 30.5 203.15625 30.03125 202.964844 C 29.566406 202.769531 29.152344 202.496094 28.796875 202.136719 C 28.4375 201.78125 28.164062 201.367188 27.96875 200.898438 C 27.777344 200.433594 27.679688 199.945312 27.679688 199.441406 C 27.679688 198.9375 27.777344 198.449219 27.96875 197.984375 C 28.164062 197.515625 28.4375 197.105469 28.796875 196.746094 C 29.152344 196.390625 29.566406 196.113281 30.03125 195.921875 C 30.5 195.726562 30.984375 195.628906 31.492188 195.628906 L 271.386719 195.628906 C 271.890625 195.628906 272.378906 195.726562 272.84375 195.921875 C 273.3125 196.113281 273.722656 196.390625 274.082031 196.746094 C 274.4375 197.105469 274.714844 197.515625 274.90625 197.984375 C 275.101562 198.449219 275.199219 198.9375 275.199219 199.441406 C 275.199219 199.945312 275.101562 200.433594 274.90625 200.898438 C 274.714844 201.367188 274.4375 201.78125 274.082031 202.136719 C 273.722656 202.496094 273.3125 202.769531 272.84375 202.964844 C 272.378906 203.15625 271.890625 203.253906 271.386719 203.253906 Z M 271.386719 203.253906 " fill-opacity="1" fill-rule="nonzero"/><path fill="#ffffff" d="M 271.386719 231.425781 L 31.492188 231.425781 C 30.984375 231.425781 30.5 231.328125 30.03125 231.132812 C 29.566406 230.941406 29.152344 230.664062 28.796875 230.308594 C 28.4375 229.949219 28.164062 229.539062 27.96875 229.070312 C 27.777344 228.605469 27.679688 228.117188 27.679688 227.613281 C 27.679688 227.109375 27.777344 226.621094 27.96875 226.15625 C 28.164062 225.6875 28.4375 225.277344 28.796875 224.917969 C 29.152344 224.5625 29.566406 224.285156 30.03125 224.089844 C 30.5 223.898438 30.984375 223.800781 31.492188 223.800781 L 271.386719 223.800781 C 271.890625 223.800781 272.378906 223.898438 272.84375 224.089844 C 273.3125 224.285156 273.722656 224.5625 274.082031 224.917969 C 274.4375 225.277344 274.714844 225.6875 274.90625 226.15625 C 275.101562 226.621094 275.199219 227.109375 275.199219 227.613281 C 275.199219 228.117188 275.101562 228.605469 274.90625 229.070312 C 274.714844 229.539062 274.4375 229.949219 274.082031 230.308594 C 273.722656 230.664062 273.3125 230.941406 272.84375 231.132812 C 272.378906 231.328125 271.890625 231.425781 271.386719 231.425781 Z M 271.386719 231.425781 " fill-opacity="1" fill-rule="nonzero"/><path fill="#ffffff" d="M 271.386719 259.589844 L 31.492188 259.589844 C 30.984375 259.589844 30.5 259.492188 30.03125 259.296875 C 29.566406 259.105469 29.152344 258.828125 28.796875 258.472656 C 28.4375 258.113281 28.164062 257.703125 27.96875 257.234375 C 27.777344 256.769531 27.679688 256.28125 27.679688 255.777344 C 27.679688 255.273438 27.777344 254.785156 27.96875 254.320312 C 28.164062 253.851562 28.4375 253.4375 28.796875 253.082031 C 29.152344 252.722656 29.566406 252.449219 30.03125 252.253906 C 30.5 252.0625 30.984375 251.964844 31.492188 251.964844 L 271.386719 251.964844 C 271.890625 251.964844 272.378906 252.0625 272.84375 252.253906 C 273.3125 252.449219 273.722656 252.722656 274.082031 253.082031 C 274.4375 253.4375 274.714844 253.851562 274.90625 254.320312 C 275.101562 254.785156 275.199219 255.273438 275.199219 255.777344 C 275.199219 256.28125 275.101562 256.769531 274.90625 257.234375 C 274.714844 257.703125 274.4375 258.113281 274.082031 258.472656 C 273.722656 258.828125 273.3125 259.105469 272.84375 259.296875 C 272.378906 259.492188 271.890625 259.589844 271.386719 259.589844 Z M 271.386719 259.589844 " fill-opacity="1" fill-rule="nonzero"/><path fill="#ffffff" d="M 271.386719 287.757812 L 31.492188 287.757812 C 30.984375 287.757812 30.5 287.660156 30.03125 287.464844 C 29.566406 287.273438 29.152344 286.996094 28.796875 286.640625 C 28.4375 286.28125 28.164062 285.871094 27.96875 285.402344 C 27.777344 284.9375 27.679688 284.449219 27.679688 283.945312 C 27.679688 283.441406 27.777344 282.953125 27.96875 282.484375 C 28.164062 282.019531 28.4375 281.605469 28.796875 281.25 C 29.152344 280.890625 29.566406 280.617188 30.03125 280.421875 C 30.5 280.230469 30.984375 280.132812 31.492188 280.132812 L 271.386719 280.132812 C 271.890625 280.132812 272.378906 280.230469 272.84375 280.421875 C 273.3125 280.617188 273.722656 280.890625 274.082031 281.25 C 274.4375 281.605469 274.714844 282.019531 274.90625 282.484375 C 275.101562 282.953125 275.199219 283.441406 275.199219 283.945312 C 275.199219 284.449219 275.101562 284.9375 274.90625 285.402344 C 274.714844 285.871094 274.4375 286.28125 274.082031 286.640625 C 273.722656 286.996094 273.3125 287.273438 272.84375 287.464844 C 272.378906 287.660156 271.890625 287.757812 271.386719 287.757812 Z M 271.386719 287.757812 " fill-opacity="1" fill-rule="nonzero"/><path fill="#ffffff" d="M 271.386719 315.929688 L 31.492188 315.929688 C 30.984375 315.929688 30.5 315.832031 30.03125 315.636719 C 29.566406 315.445312 29.152344 315.167969 28.796875 314.8125 C 28.4375 314.453125 28.164062 314.042969 27.96875 313.574219 C 27.777344 313.109375 27.679688 312.621094 27.679688 312.117188 C 27.679688 311.609375 27.777344 311.125 27.96875 310.65625 C 28.164062 310.191406 28.4375 309.777344 28.796875 309.421875 C 29.152344 309.0625 29.566406 308.789062 30.03125 308.59375 C 30.5 308.402344 30.984375 308.304688 31.492188 308.304688 L 271.386719 308.304688 C 271.890625 308.304688 272.378906 308.402344 272.84375 308.59375 C 273.3125 308.789062 273.722656 309.0625 274.082031 309.421875 C 274.4375 309.777344 274.714844 310.191406 274.90625 310.65625 C 275.101562 311.125 275.199219 311.609375 275.199219 312.117188 C 275.199219 312.621094 275.101562 313.109375 274.90625 313.574219 C 274.714844 314.042969 274.4375 314.453125 274.082031 314.8125 C 273.722656 315.167969 273.3125 315.445312 272.84375 315.636719 C 272.378906 315.832031 271.890625 315.929688 271.386719 315.929688 Z M 271.386719 315.929688 " fill-opacity="1" fill-rule="nonzero"/><path fill="#ffffff" d="M 271.386719 344.09375 L 31.492188 344.09375 C 30.984375 344.09375 30.5 343.996094 30.03125 343.800781 C 29.566406 343.609375 29.152344 343.332031 28.796875 342.976562 C 28.4375 342.617188 28.164062 342.207031 27.96875 341.738281 C 27.777344 341.273438 27.679688 340.785156 27.679688 340.28125 C 27.679688 339.773438 27.777344 339.289062 27.96875 338.820312 C 28.164062 338.355469 28.4375 337.941406 28.796875 337.585938 C 29.152344 337.226562 29.566406 336.953125 30.03125 336.757812 C 30.5 336.566406 30.984375 336.46875 31.492188 336.46875 L 271.386719 336.46875 C 271.890625 336.46875 272.378906 336.566406 272.84375 336.757812 C 273.3125 336.953125 273.722656 337.226562 274.082031 337.585938 C 274.4375 337.941406 274.714844 338.355469 274.90625 338.820312 C 275.101562 339.289062 275.199219 339.773438 275.199219 340.28125 C 275.199219 340.785156 275.101562 341.273438 274.90625 341.738281 C 274.714844 342.207031 274.4375 342.617188 274.082031 342.976562 C 273.722656 343.332031 273.3125 343.609375 272.84375 343.800781 C 272.378906 343.996094 271.890625 344.09375 271.386719 344.09375 Z M 271.386719 344.09375 " fill-opacity="1" fill-rule="nonzero"/></svg>