<svg xmlns="http://www.w3.org/2000/svg" xmlns:xlink="http://www.w3.org/1999/xlink" width="500" zoomAndPan="magnify" viewBox="0 0 375 374.999991" height="500" preserveAspectRatio="xMidYMid meet" version="1.0"><defs><clipPath id="593ee18f5b"><path d="M 37.5 0 L 337.5 0 L 337.5 375 L 37.5 375 Z M 37.5 0 " clip-rule="nonzero"/></clipPath></defs><g clip-path="url(#593ee18f5b)"><path fill="#222222" d="M 225 0 L 75 0 C 54.28125 0 37.6875 16.78125 37.6875 37.5 L 37.5 337.5 C 37.5 358.21875 54.09375 375 74.8125 375 L 300 375 C 320.71875 375 337.5 358.21875 337.5 337.5 L 337.5 112.5 Z M 262.5 300 L 112.5 300 L 112.5 262.5 L 262.5 262.5 Z M 262.5 225 L 112.5 225 L 112.5 187.5 L 262.5 187.5 Z M 206.25 131.25 L 206.25 28.125 L 309.375 131.25 Z M 206.25 131.25 " fill-opacity="1" fill-rule="nonzero"/></g></svg>