<svg xmlns="http://www.w3.org/2000/svg" xmlns:xlink="http://www.w3.org/1999/xlink" width="500" zoomAndPan="magnify" viewBox="0 0 375 374.999991" height="500" preserveAspectRatio="xMidYMid meet" version="1.0"><path fill="#ffffff" d="M 354.671875 192.703125 L 20.328125 192.703125 C 10.8125 192.703125 3.089844 184.980469 3.089844 175.464844 L 3.089844 151.316406 C 3.089844 141.804688 10.8125 134.078125 20.328125 134.078125 L 354.671875 134.078125 C 364.1875 134.078125 371.910156 141.804688 371.910156 151.316406 L 371.910156 175.464844 C 371.910156 184.980469 364.1875 192.703125 354.671875 192.703125 Z M 20.328125 143.753906 C 16.179688 143.753906 12.847656 147.089844 12.847656 151.234375 L 12.847656 175.386719 C 12.847656 179.53125 16.179688 182.867188 20.328125 182.867188 L 354.671875 182.867188 C 358.820312 182.867188 362.152344 179.53125 362.152344 175.386719 L 362.152344 151.234375 C 362.152344 147.089844 358.820312 143.753906 354.671875 143.753906 Z M 20.328125 143.753906 " fill-opacity="1" fill-rule="nonzero"/><path fill="#ffffff" d="M 335.078125 360.933594 L 39.921875 360.933594 C 30.652344 360.933594 23.09375 353.371094 23.09375 344.101562 L 23.09375 187.824219 C 23.09375 185.140625 25.289062 182.945312 27.96875 182.945312 L 347.109375 182.945312 C 349.792969 182.945312 351.988281 185.140625 351.988281 187.824219 L 351.988281 344.101562 C 351.90625 353.371094 344.425781 360.933594 335.078125 360.933594 Z M 32.847656 192.703125 L 32.847656 344.101562 C 32.847656 348.003906 36.019531 351.175781 39.921875 351.175781 L 335.160156 351.175781 C 339.0625 351.175781 342.230469 348.003906 342.230469 344.101562 L 342.230469 192.703125 Z M 32.847656 192.703125 " fill-opacity="1" fill-rule="nonzero"/><path fill="#ffffff" d="M 336.867188 375 L 25.773438 375 C 16.503906 375 8.945312 367.4375 8.945312 358.167969 L 8.945312 187.824219 C 8.945312 185.140625 11.140625 182.945312 13.824219 182.945312 L 361.175781 182.945312 C 363.859375 182.945312 366.054688 185.140625 366.054688 187.824219 L 366.054688 345.808594 C 366.054688 361.910156 352.964844 375 336.867188 375 Z M 18.703125 192.703125 L 18.703125 358.25 C 18.703125 362.152344 21.871094 365.324219 25.773438 365.324219 L 336.867188 365.324219 C 347.597656 365.324219 356.296875 356.625 356.296875 345.890625 L 356.296875 192.703125 Z M 18.703125 192.703125 " fill-opacity="1" fill-rule="nonzero"/><path fill="#ffffff" d="M 240.839844 360.933594 L 134.160156 360.933594 C 131.476562 360.933594 129.28125 358.738281 129.28125 356.054688 L 129.28125 187.824219 C 129.28125 185.140625 131.476562 182.945312 134.160156 182.945312 L 240.757812 182.945312 C 243.441406 182.945312 245.636719 185.140625 245.636719 187.824219 L 245.636719 356.054688 C 245.71875 358.738281 243.523438 360.933594 240.839844 360.933594 Z M 139.039062 351.175781 L 235.878906 351.175781 L 235.878906 192.703125 L 139.039062 192.703125 Z M 139.039062 351.175781 " fill-opacity="1" fill-rule="nonzero"/><path fill="#ffffff" d="M 347.03125 301.984375 L 27.96875 301.984375 C 25.289062 301.984375 23.09375 299.789062 23.09375 297.105469 L 23.09375 243.523438 C 23.09375 240.839844 25.289062 238.644531 27.96875 238.644531 L 347.109375 238.644531 C 349.792969 238.644531 351.988281 240.839844 351.988281 243.523438 L 351.988281 297.105469 C 351.90625 299.789062 349.710938 301.984375 347.03125 301.984375 Z M 32.847656 292.226562 L 342.230469 292.226562 L 342.230469 248.402344 L 32.847656 248.402344 Z M 32.847656 292.226562 " fill-opacity="1" fill-rule="nonzero"/><path fill="#ffffff" d="M 124.324219 143.753906 C 121.882812 143.753906 119.769531 141.964844 119.445312 139.445312 C 117.816406 125.703125 108.875 114.078125 96.109375 109.035156 C 93.585938 108.058594 92.367188 105.214844 93.34375 102.695312 C 94.320312 100.171875 97.164062 98.953125 99.6875 99.929688 C 115.867188 106.191406 127.085938 120.90625 129.121094 138.226562 C 129.445312 140.910156 127.492188 143.347656 124.808594 143.675781 C 124.648438 143.753906 124.484375 143.753906 124.324219 143.753906 Z M 124.324219 143.753906 " fill-opacity="1" fill-rule="nonzero"/><path fill="#ffffff" d="M 42.28125 143.753906 C 42.117188 143.753906 41.875 143.753906 41.710938 143.753906 C 39.027344 143.429688 37.160156 140.992188 37.484375 138.308594 C 39.515625 121.070312 50.898438 106.351562 67 100.011719 C 69.519531 99.035156 72.367188 100.253906 73.339844 102.773438 C 74.316406 105.296875 73.097656 108.140625 70.578125 109.117188 C 57.8125 114.160156 48.785156 125.785156 47.160156 139.445312 C 46.753906 141.964844 44.71875 143.753906 42.28125 143.753906 Z M 42.28125 143.753906 " fill-opacity="1" fill-rule="nonzero"/><path fill="#ffffff" d="M 83.261719 113.265625 C 77.324219 113.265625 71.472656 111.71875 66.347656 108.875 C 55.210938 102.695312 48.296875 90.984375 48.296875 78.21875 C 48.296875 58.949219 63.992188 43.175781 83.34375 43.175781 C 102.613281 43.175781 118.386719 58.867188 118.386719 78.21875 C 118.386719 90.902344 111.476562 102.613281 100.335938 108.875 C 95.132812 111.71875 89.195312 113.265625 83.261719 113.265625 Z M 83.261719 52.933594 C 69.355469 52.933594 57.972656 64.234375 57.972656 78.21875 C 57.972656 87.40625 62.933594 95.863281 70.984375 100.335938 C 74.722656 102.367188 78.953125 103.507812 83.179688 103.507812 C 87.488281 103.507812 91.71875 102.449219 95.457031 100.335938 C 103.507812 95.863281 108.46875 87.40625 108.46875 78.21875 C 108.546875 64.316406 97.164062 52.933594 83.261719 52.933594 Z M 83.261719 52.933594 " fill-opacity="1" fill-rule="nonzero"/><path fill="#ffffff" d="M 70.332031 81.226562 C 69.84375 81.226562 69.355469 81.148438 68.949219 80.984375 C 66.347656 80.171875 64.886719 77.488281 65.699219 74.886719 C 68.300781 66.265625 76.511719 60.574219 85.210938 61.550781 C 92.449219 62.28125 98.792969 67.730469 100.90625 74.96875 C 101.636719 77.570312 100.171875 80.253906 97.570312 80.984375 C 94.96875 81.714844 92.285156 80.253906 91.554688 77.652344 C 90.496094 74.15625 87.570312 71.550781 84.238281 71.226562 C 80.253906 70.820312 76.269531 73.585938 75.046875 77.730469 C 74.398438 79.925781 72.445312 81.226562 70.332031 81.226562 Z M 70.332031 81.226562 " fill-opacity="1" fill-rule="nonzero"/><path fill="#ffffff" d="M 250.675781 143.753906 C 250.515625 143.753906 250.269531 143.753906 250.109375 143.753906 C 247.425781 143.429688 245.554688 140.992188 245.800781 138.308594 C 247.832031 120.988281 259.132812 106.273438 275.234375 100.011719 C 277.753906 99.035156 280.597656 100.253906 281.574219 102.773438 C 282.550781 105.296875 281.332031 108.140625 278.8125 109.117188 C 266.046875 114.078125 257.101562 125.703125 255.476562 139.527344 C 255.230469 141.964844 253.117188 143.753906 250.675781 143.753906 Z M 250.675781 143.753906 " fill-opacity="1" fill-rule="nonzero"/><path fill="#ffffff" d="M 332.71875 143.753906 C 330.28125 143.753906 328.164062 141.964844 327.839844 139.445312 C 326.214844 125.703125 317.269531 114.078125 304.421875 109.117188 C 301.902344 108.140625 300.683594 105.296875 301.660156 102.773438 C 302.632812 100.253906 305.480469 99.035156 308 100.011719 C 324.179688 106.351562 335.484375 120.988281 337.515625 138.308594 C 337.839844 140.992188 335.890625 143.429688 333.289062 143.753906 C 333.125 143.753906 332.964844 143.753906 332.71875 143.753906 Z M 332.71875 143.753906 " fill-opacity="1" fill-rule="nonzero"/><path fill="#ffffff" d="M 291.738281 113.265625 C 285.804688 113.265625 279.867188 111.71875 274.746094 108.875 C 263.605469 102.695312 256.777344 90.984375 256.777344 78.21875 C 256.777344 58.949219 272.46875 43.175781 291.820312 43.175781 C 311.089844 43.175781 326.863281 58.867188 326.863281 78.21875 C 326.863281 90.984375 319.953125 102.695312 308.8125 108.875 C 303.527344 111.71875 297.675781 113.265625 291.738281 113.265625 Z M 291.738281 52.933594 C 277.835938 52.933594 266.453125 64.234375 266.453125 78.21875 C 266.453125 87.40625 271.410156 95.863281 279.460938 100.335938 C 283.203125 102.449219 287.429688 103.507812 291.738281 103.507812 C 296.046875 103.507812 300.277344 102.449219 303.933594 100.335938 C 311.984375 95.863281 317.027344 87.40625 317.027344 78.21875 C 316.945312 64.316406 305.644531 52.933594 291.738281 52.933594 Z M 291.738281 52.933594 " fill-opacity="1" fill-rule="nonzero"/><path fill="#ffffff" d="M 304.667969 81.226562 C 302.554688 81.226562 300.601562 79.847656 300.03125 77.730469 C 298.8125 73.585938 294.828125 70.820312 290.84375 71.226562 C 287.511719 71.550781 284.503906 74.15625 283.527344 77.652344 C 282.792969 80.253906 280.03125 81.714844 277.511719 80.984375 C 274.90625 80.253906 273.445312 77.488281 274.175781 74.96875 C 276.289062 67.730469 282.550781 62.28125 289.867188 61.550781 C 298.570312 60.65625 306.78125 66.265625 309.382812 74.886719 C 310.195312 77.488281 308.734375 80.171875 306.128906 80.984375 C 305.644531 81.226562 305.15625 81.226562 304.667969 81.226562 Z M 304.667969 81.226562 " fill-opacity="1" fill-rule="nonzero"/><path fill="#ffffff" d="M 131.476562 143.753906 C 131.316406 143.753906 131.070312 143.753906 130.910156 143.753906 C 128.226562 143.429688 126.355469 140.992188 126.597656 138.308594 C 129.527344 113.589844 145.625 92.613281 168.636719 83.667969 C 171.15625 82.691406 174.003906 83.910156 174.976562 86.433594 C 175.953125 88.953125 174.734375 91.796875 172.214844 92.773438 C 152.535156 100.417969 138.796875 118.304688 136.355469 139.445312 C 135.949219 141.964844 133.917969 143.753906 131.476562 143.753906 Z M 131.476562 143.753906 " fill-opacity="1" fill-rule="nonzero"/><path fill="#ffffff" d="M 252.546875 143.753906 C 250.109375 143.753906 247.996094 141.964844 247.667969 139.445312 C 245.148438 118.386719 231.324219 100.5 211.648438 92.773438 C 209.128906 91.796875 207.910156 88.953125 208.882812 86.433594 C 209.859375 83.910156 212.707031 82.691406 215.226562 83.667969 C 238.238281 92.691406 254.417969 113.589844 257.34375 138.308594 C 257.671875 140.992188 255.71875 143.429688 253.117188 143.753906 C 252.953125 143.753906 252.710938 143.753906 252.546875 143.753906 Z M 252.546875 143.753906 " fill-opacity="1" fill-rule="nonzero"/><path fill="#ffffff" d="M 191.972656 98.710938 C 183.597656 98.710938 175.304688 96.597656 167.984375 92.53125 C 152.292969 83.832031 142.617188 67.242188 142.617188 49.355469 C 142.617188 22.117188 164.734375 0 191.972656 0 C 219.210938 0 241.328125 22.117188 241.328125 49.355469 C 241.328125 67.324219 231.570312 83.832031 215.878906 92.53125 C 208.640625 96.597656 200.347656 98.710938 191.972656 98.710938 Z M 191.972656 9.757812 C 170.101562 9.757812 152.375 27.484375 152.375 49.355469 C 152.375 63.746094 160.179688 77 172.78125 83.992188 C 178.636719 87.246094 185.304688 88.953125 191.972656 88.953125 C 198.722656 88.953125 205.308594 87.246094 211.078125 83.992188 C 223.683594 77 231.570312 63.746094 231.570312 49.355469 C 231.570312 27.484375 213.84375 9.757812 191.972656 9.757812 Z M 191.972656 9.757812 " fill-opacity="1" fill-rule="nonzero"/><path fill="#ffffff" d="M 191.972656 65.128906 C 180.996094 65.128906 172.132812 56.183594 172.132812 45.289062 C 172.132812 34.394531 181.078125 25.449219 191.972656 25.449219 C 202.949219 25.449219 211.8125 34.394531 211.8125 45.289062 C 211.8125 56.183594 202.949219 65.128906 191.972656 65.128906 Z M 191.972656 35.207031 C 186.363281 35.207031 181.890625 39.761719 181.890625 45.289062 C 181.890625 50.820312 186.441406 55.371094 191.972656 55.371094 C 197.582031 55.371094 202.054688 50.820312 202.054688 45.289062 C 202.054688 39.761719 197.582031 35.207031 191.972656 35.207031 Z M 191.972656 35.207031 " fill-opacity="1" fill-rule="nonzero"/><path fill="#ffffff" d="M 187.5 147.660156 L 192.214844 157.253906 L 202.703125 158.714844 L 195.144531 166.195312 L 196.933594 176.605469 L 187.5 171.726562 L 178.066406 176.605469 L 179.855469 166.195312 L 172.296875 158.714844 L 182.785156 157.253906 Z M 187.5 147.660156 " fill-opacity="1" fill-rule="nonzero"/><path fill="#ffffff" d="M 291.738281 147.660156 L 296.453125 157.253906 L 306.945312 158.714844 L 299.300781 166.195312 L 301.089844 176.605469 L 291.738281 171.726562 L 282.308594 176.605469 L 284.097656 166.195312 L 276.535156 158.714844 L 287.023438 157.253906 Z M 291.738281 147.660156 " fill-opacity="1" fill-rule="nonzero"/><path fill="#ffffff" d="M 83.261719 147.660156 L 78.546875 157.253906 L 68.054688 158.714844 L 75.699219 166.195312 L 73.910156 176.605469 L 83.261719 171.726562 L 92.691406 176.605469 L 90.902344 166.195312 L 98.464844 158.714844 L 87.976562 157.253906 Z M 83.261719 147.660156 " fill-opacity="1" fill-rule="nonzero"/></svg>