<svg xmlns="http://www.w3.org/2000/svg" xmlns:xlink="http://www.w3.org/1999/xlink" width="500" zoomAndPan="magnify" viewBox="0 0 375 374.999991" height="500" preserveAspectRatio="xMidYMid meet" version="1.0"><path fill="#ffffff" d="M 369.429688 342.335938 L 287.640625 260.550781 C 306.714844 234.324219 317.984375 202.078125 317.984375 167.246094 C 317.984375 79.574219 246.660156 8.253906 158.992188 8.253906 C 71.324219 8.253906 0 79.574219 0 167.246094 C 0 254.914062 71.324219 326.238281 158.992188 326.238281 C 201.519531 326.238281 240.199219 309.453125 268.757812 282.164062 L 349.179688 362.585938 C 351.976562 365.382812 355.640625 366.78125 359.304688 366.78125 C 362.96875 366.78125 366.632812 365.382812 369.429688 362.585938 C 375.023438 356.996094 375.023438 347.929688 369.429688 342.335938 Z M 158.992188 297.597656 C 87.113281 297.597656 28.636719 239.121094 28.636719 167.246094 C 28.636719 95.367188 87.113281 36.890625 158.992188 36.890625 C 230.871094 36.890625 289.347656 95.367188 289.347656 167.246094 C 289.347656 239.121094 230.871094 297.597656 158.992188 297.597656 Z M 158.992188 297.597656 " fill-opacity="1" fill-rule="nonzero"/></svg>