<svg xmlns="http://www.w3.org/2000/svg" xmlns:xlink="http://www.w3.org/1999/xlink" width="500" zoomAndPan="magnify" viewBox="0 0 375 374.999991" height="500" preserveAspectRatio="xMidYMid meet" version="1.0"><defs><clipPath id="a360f652e3"><path d="M 18.75 0 L 356.25 0 L 356.25 375 L 18.75 375 Z M 18.75 0 " clip-rule="nonzero"/></clipPath></defs><g clip-path="url(#a360f652e3)"><path fill="#222222" d="M 300 265.03125 C 285.75 265.03125 272.90625 270.5625 263.15625 279.46875 L 129.5625 201.5625 C 130.59375 197.34375 131.25 192.9375 131.25 188.4375 C 131.25 183.9375 130.59375 179.53125 129.5625 175.3125 L 261.75 98.15625 C 271.78125 107.53125 285.1875 113.34375 300 113.34375 C 331.03125 113.34375 356.25 88.125 356.25 57.09375 C 356.25 26.0625 331.03125 0.84375 300 0.84375 C 268.96875 0.84375 243.75 26.0625 243.75 57.09375 C 243.75 61.59375 244.40625 66 245.4375 70.21875 L 113.25 147.375 C 103.21875 138 89.8125 132.1875 75 132.1875 C 43.96875 132.1875 18.75 157.40625 18.75 188.4375 C 18.75 219.46875 43.96875 244.6875 75 244.6875 C 89.8125 244.6875 103.21875 238.875 113.25 229.5 L 246.84375 307.40625 C 245.90625 311.34375 245.34375 315.46875 245.34375 319.6875 C 245.34375 349.875 269.8125 374.34375 300 374.34375 C 330.1875 374.34375 354.65625 349.875 354.65625 319.6875 C 354.65625 289.5 330.1875 265.03125 300 265.03125 Z M 300 265.03125 " fill-opacity="1" fill-rule="nonzero"/></g></svg>